<?xml version="1.0" encoding="UTF-8"?>
<svg id="Layer_1" data-name="Layer 1" xmlns="http://www.w3.org/2000/svg" viewBox="0 0 551.27 521.65">
  <defs>
    <style>
      .cls-1 {
        fill: #fefefe;
      }

      .cls-1, .cls-2, .cls-3, .cls-4 {
        stroke-width: 0px;
      }

      .cls-2 {
        fill: #67b437;
      }

      .cls-3 {
        fill: #0dadb6;
      }

      .cls-4 {
        fill: #041a32;
      }
    </style>
  </defs>
  <path class="cls-4" d="M303.84,357.68c5.64-3.38,11.3-6.74,16.93-10.14,1.18-.71,1.34-2.03,1.59-3.25,2.85-13.7,8.07-26.63,12.68-39.77,1.52-4.34,4.22-7.29,8.71-8.4,1.87-.46,2.95-1.71,4.01-3.12,15-19.9,30-39.8,45.02-59.69.86-1.14,1.22-2.12.94-3.71-1.17-6.53,2.4-12.06,8.72-13.59,5.17-1.25,7.1-5.41,8.56-9.67.79-2.31.53-3.55,3.2-1.3,7.23,6.1,19.48,4.8,25.92-2.89,9.76-11.65,18.79-23.89,27.9-36.06.07-.1.13-.21.21-.31,3.46-4.88,3.75-4.99,8.54-1.3,4.14,3.2,8.31,6.4,12.13,9.96,1.9,1.77,2.66,1.23,3.93-.37.87-1.09,1.54-2.59,3.73-2.64-1.81,4.36-5.16,7.35-7.74,10.82-13.37,17.99-26.42,36.22-40.26,53.86-.61.77-1.02,1.7-1.53,2.56-.41.39-1.16.84-.65,1.37.33.35,1.03-.12,1.29-.71,7.33-3.95,14.08-8.88,21.53-12.64,7-3.54,14.13-6.78,21.49-9.48,4-1.47,4.55-1.14,5.55,3.11,1.56,6.69,2.42,13.49,2.83,20.33.16,2.68.87,2.76,3.08,1.83,11.24-4.73,22.69-8.89,34.67-11.42,5.47-1.16,5.9-.96,6.57,4.17,3.25,25.07-.87,48.86-12.33,71.39-.48.95-1.74,1.95-1,2.98.69.96,2.09.25,3.17.23,4.61-.11,9.23-.29,13.84-.37,4.1-.07,4.65.5,3.95,4.49-2.14,12.2-6.8,23.4-14.03,33.46-12.55,17.46-29.52,27.44-50.96,29.73-5.09.54-5.15.67-2.27,5.34,16,25.96,32.03,51.9,48.06,77.85.39.63.8,1.26,1.16,1.92,2.66,4.96.74,8.98-4.76,9.73-23.93,3.28-47.9,6.32-71.81,9.82-25.02,3.66-49.99,7.61-74.95,11.65-22.86,3.7-45.66,7.72-68.5,11.52-1.83.3-2.8,1-3.52,2.73-1.31,3.19-3.55,5.82-6.67,7.31-17.81,8.49-35.66,9.26-53.42-.14-2.57-1.36-4.93-3.32-5.85-6.09-1.05-3.15-3.15-3.89-6.03-4.35-33.58-5.36-67-11.74-100.67-16.51-32.69-4.63-65.39-9.14-98.09-13.71-4.69-.66-9.38-1.31-14.05-2.05-7.31-1.16-9.1-4.89-5.21-11.18,9.44-15.25,19.03-30.42,28.47-45.66,6.95-11.22,13.76-22.54,20.69-33.77,1.5-2.43,2.25-3.71-1.83-4.09-36.87-3.51-58.76-29.66-66.26-60.77-.09-.36-.12-.74-.18-1.11-.86-5.74-.4-6.25,5.35-6.09,4.61.13,9.22.2,13.83.36,1.61.06,2.1-.28,1.19-1.86-6.57-11.52-10.36-24-12.51-37.01-2.13-12.86-2.04-25.76-.38-38.67.34-2.63,2.06-2.19,3.9-1.89,13.07,2.15,25.56,6.22,37.74,11.31.77.32,1.57.57,2.42.87.88-7.53,1.32-14.97,3.09-22.23,1.11-4.54,1.2-4.6,5.61-3.23,19.75,6.15,37.3,16.29,53.08,29.54,1.97,1.65,2.55,1.23,3.92-.47,10.17-12.67,21.73-23.95,34.25-34.31,6.8-5.63,13.17-11.83,18-19.37,7.57-11.79,8.69-24.29,3.75-37.29-6.32-16.63-9.99-33.66-9.34-51.58.82-22.66,8.45-42.71,22.07-60.67,11.9-15.69,26.86-27.51,45.01-35.01,17.42-7.21,35.36-8.91,53.58-2.97,1.98.65,3.57.36,5.34-.39,18.08-7.7,34.96-6.02,50.19,6.85,4.69,3.96,8.36,8.99,10.74,14.59,1.42,3.34,3.45,3.9,6.47,4.1,9.25.62,18.45,1.77,27.12,5.27,18.25,7.37,30.19,20.39,33.95,39.95,1.28,6.66,1.94,13.92-1.11,20.19-3,6.19-4.59,12.87-7.66,18.97-.84,1.66-1.77,3.24-3.04,4.66-2.02,2.27-3.93,2.21-6.07.23-1.97-1.83-3.55-4.11-6.13-5.56-1.22,3.65-2.26,7.16-4.08,10.36-2.43,4.26-4.15,4.61-7.69,1.16-1.94-1.89-3.63-4.05-5.53-6.19-1.85,3.21-3.49,6.26-5.34,9.19-2.27,3.6-3.92,3.86-7.08.93-2.53-2.35-4.78-5.02-7.33-7.74-1.08,2.09-1.56,3.8-2.64,4.98-3.29,3.61-2.22,7.42-.91,11.31.44,1.31.9,2.23,2.5.84,1.48-1.29,3.36-2.09,4.97-3.25,2.35-1.69,3.49-.67,4.08,1.68.75,2.98.55,7.42,2.75,8.45,2.23,1.04,5.15-2.45,7.79-3.93,2.38-1.33,3.94-1.05,4.89,1.63.7,1.97,1.51,3.9,2.2,5.87.79,2.26,1.76,4,4.4,4.92,2.91,1.01,3.99,3.98,4.29,6.9,1.23,12.04-3.17,21.86-12.15,29.72-8.43,7.37-18.56,10.45-29.52,11.02-12.18.63-24.1-1.31-35.91-4.09-5.48-1.29-5.42-1.25-6.78,4.26-2.32,9.4.43,17.9,4.15,26.4,1.7,3.89,3.37,5.79,8.23,5.58,21.18-.91,31.97,21.64,24.24,39.27-2.07,4.72-4.77,8.99-8.33,12.76-1.85,1.96-3.33,2.06-5.34.19-3.91-3.63-8.22-6.77-13.31-9.8.24,3.37.46,6.26.64,9.15,1.48,24.42-3.75,47.5-13.82,69.62-.31.68-.53,1.4-.78,2.1-.25.31-.76.6-.16.99.11.07.48-.28.73-.43l-.02-.04ZM482.88,248.22c-.14-2.6-.39-5.21-.4-7.81,0-1.98-.38-2.91-2.5-1.74-15.72,8.69-30.77,18.27-42.78,31.93-2.67-.28-3.52,2.13-4.9,3.53-13.08,13.31-22.45,28.53-24.3,47.64-.27,2.83.13,3.93,3.16,3.52,4.19-.57,8.42-1.23,12.62-1.23,3.91,0,3.85-1.72,3.33-4.72-1.49-8.73-1.43-17.28,3.56-25.17,1.05-1.67,1.93-3.51,4.06-3.08,2.36.48,1.7,2.77,1.64,4.39-.26,7.48-.65,14.98,1.33,22.31.46,1.7-.17,4.64,2.79,4.39,3.34-.29,7.46,2.12,9.62-3.07,3.27-7.87,5.14-16.08,7-24.32.82-3.64,1.35-7.36,2.78-10.83.58-1.42.93-3.52,2.95-3.4,2.22.13,2.71,2.19,3.33,4.01.99,2.95.37,6.13,1.26,9.77,2.86-2.98,5.66-5.17,8.88-6.74,2.24-1.1,4.86-2.6,6.99-.78,2.12,1.8.15,4.22-.62,6.18-1.62,4.11-3.53,8.1-5.72,13.06,5.96-2.36,11.09-4.1,16.44-5.06,4.22-.76,8.45-.63,12.68-.39,1.65.09,3.37.79,3.78,2.56.44,1.89-1.43,2.46-2.67,2.98-6.5,2.71-13.1,5.18-19.59,7.92-10.83,4.57-21.61,9.27-28.56,19.54-.84,1.24,1.93,8.25,3.39,8.42.32.04.69-.21,1.01-.37,3.87-1.85,7.99-2.97,12.21-3.2,4.13-.23,6.62-1.22,7.29-5.96.46-3.21,3.49-4.74,6.95-4.16,3.02.51,5.12,1.95,4.75,5.49-.17,1.6.61,1.59,2.02,1.58,2.72-.03,5.46.3,8.15.76,1.98.34,5.02.29,5.01,2.79,0,2.12-2.99,2.28-4.85,2.68-9.99,2.16-19.87,4.73-29.6,7.82-2.47.78-6.25.39-7.15,2.41-1.02,2.29,2.05,4.7,3.07,7.19.54,1.33.93,2.9,2.96,2.85,4.11-.1,8.34.5,12.33-.25,21.53-4.01,36.51-16.13,44.76-36.93-4.47-.37-8.54-.07-12.6.24-3.35.26-6.73.6-10.03-.43-2.47-.77-3.44-2.41-2.4-4.89.53-1.25,1.16-2.49,1.92-3.61,13.15-19.3,19.24-40.82,20.29-63.96.08-1.73.13-2.66-2.08-1.89-10.87,3.81-21.26,8.5-30.77,15.13-3.98,2.78-6.84,7.23-12.17,8.46,0-1.7.03-3.18,0-4.67-.14-6.96.44-13.94-.62-20.87v-.02ZM68.55,245.21c-1.88,9.78-.63,19.7-1,30.52-12.08-12.06-25.57-20.17-40.94-25.13-4.28-1.43-4.09-1.43-4.02,3.13.11,6.69,1.7,13.15,2.64,19.7,1.03,3.96,2,7.94,3.11,11.88,3.24,11.5,8.72,21.92,15.1,31.95,3.06,4.81,1.77,7-3.98,7.34-3.36.2-6.73.04-10.1.05h-9.9c1.72,3.34,3.11,6.54,4.92,9.47,11.97,19.35,29.26,28.82,52.14,27.78,1.21-.06,2.17-.32,2.8-1.44,1.34-2.39,2.68-4.78,4.11-7.11.85-1.38.43-2.1-1.01-2.37-10.38-1.94-20.16-6.24-30.65-7.8-2.69-.4-5.31-1.31-7.95-2.03-1.07-.29-2.28-.56-2.3-2.04-.02-1.42,1.18-1.88,2.19-2.25,2.97-1.08,6.09-1.33,9.21-1.2,2.29.09,3.95-.11,3.59-3.09-.18-1.5.89-2.51,2.1-3.3,4.34-2.86,9.24-.8,9.96,4.65.42,3.14,1.99,3.86,4.55,4.04,4.51.31,8.82,1.49,13.09,2.89,1.43.47,3.17,1.77,4.1-.56.88-2.17,3.65-3.74,1.4-6.92-4.08-5.77-9.38-9.9-15.46-13.26-10.19-5.63-21.15-9.43-31.98-13.53-1.56-.59-3.13-1.44-2.84-3.43.32-2.16,2.11-2.52,3.96-2.64,8.3-.55,16.39.23,24.1,3.6,1.28.56,2.56,1.28,4.23,1.2-2.23-4.77-4.4-9.24-6.39-13.79-.66-1.51-1.88-3.38-.18-4.83,1.45-1.24,3.38-.69,5-.04,1.72.69,3.4,1.57,4.94,2.62,2.02,1.37,3.88,2.97,6.04,4.66.66-3.67,1.15-6.97,1.88-10.22.28-1.24.61-2.85,2.43-2.88,1.89-.03,2.49,1.42,2.93,2.9.49,1.67.97,3.35,1.3,5.06,1.97,9.9,3.95,19.79,8.21,29.03.71,1.54,1.03,3.91,2.69,4.2,2.77.48,5.83.59,8.5-.14,2.01-.55,1.38-3.48,2.1-5.28.13-.34.09-.74.17-1.11,1.44-6.93.55-13.92.6-20.89,0-1.04-.33-2.41,1.04-2.92,1.38-.51,2.42.3,3.24,1.3,1.44,1.74,2.53,3.7,3.34,5.81,2.7,7.04,3.5,14.24,1.67,21.61-.59,2.37-.17,3.39,2.52,3.5,4.22.17,8.45.6,12.64,1.21,3,.44,3.73-.63,3.33-3.43-1.55-10.87-4.72-21.23-10.72-30.44-8.83-13.54-19.21-25.74-32.64-35.05-8.7-7.63-18.43-13.64-29.31-18.62-.19,2.76-.37,5.21-.54,7.67l.04-.03ZM223.53,260.07c-.33-.51-.62-1.06-1.01-1.51-3.42-3.96-8.02-6.08-12.69-8.09-1.25-.54-2.72-1.12-2.62-2.79.1-1.68,1.46-2.53,2.88-3.11,2.99-1.22,6.04-1.29,9.13-.38,5.42,1.6,10.33,4.21,14.91,7.48,2.52,1.8,4.84,4.57,7.62,5.18,3.36.74,5.15-3.27,7.72-5.06,9.04-6.29,18.9-9.55,29.89-8.09,10.74,1.43,18.06,7.84,22.66,17.37,1.13,2.35,2.6,2.44,4.44,1.92,5.51-1.56,11.15-2.34,16.82-2.96,2.62,1.1,3.99,3.8,6.4,5.29,2.03-5.45.33-11.2-4.23-14.33-5.83-4-11.77-2.11-17.68-.13-1.34-.39-1.89-1.53-2.49-2.62-3.61-6.63-7.33-13.22-10.76-19.94-1.21-2.38-2.57-2.78-5.03-2.25-5.22,1.13-10.38.78-15.25-1.72-4.31-2.22-8.75-4.22-12.95-6.64-4.09-2.35-7.95-5.09-11.89-7.71-.69-.46-1.57-1.08-.95-2.1.39-.62,1.14-.35,1.69-.06,7.72,4.03,16.26,5.01,24.62,6.72,3.67.75,7.28.42,11.8.37-2.47-2.24-4.32-3.86-6.1-5.54-6.84-6.48-15.83-7.97-24.35-10.52-19.49-5.85-32.71-18.61-40.87-36.96-1.93-4.33-3.56-8.79-3.7-13.6-.09-2.78,1.27-4.94,3.95-5.68,2.89-.8,5.12.46,6.41,3.2,1.28,2.7,2.51,5.43,3.76,8.14,4.95,10.71,11.95,19.53,22.87,24.7,8.25,3.9,16.89,6.39,26.22,7.49-.69-1.65-1.98-1.95-2.97-2.61-7.15-4.71-13.25-10.52-17.96-17.68-1.75-2.66-2.33-5.57.54-8.06,2.6-2.25,5.14-1.94,7.62.26,1.39,1.24,2.83,2.42,4.23,3.65,3.44,3.02,7.06,5.77,11.15,7.87,12.16,6.25,25.24,9.64,38.54,12.31,11.96,2.4,23.96,4.77,36.25,4.03,7.39-.45,14.11-2.86,19.41-8.36.78-.81,1.72-1.87,1.4-2.91-.42-1.38-1.94-.72-2.95-.7-7.24.13-14.44-.24-21.55-1.64-13.36-2.63-26.36-6.36-38.15-13.41-3.41-2.04-6.35-4.93-9.88-6.66-9.09-4.46-17.09-10.87-26.42-14.77-11.85-4.95-21.22-14.37-33.58-18.32-.58-.19-1.13-.53-1.66-.85-3.52-2.12-7.1-4.24-9.62-7.54-1.63-2.12-2.65-4.63-.61-7.19,1.82-2.29,4.16-2.49,6.74-1.54.69.26,1.41.49,2.05.85,10.03,5.6,20.58,6.69,31.26,2.6,10.03-3.84,20.08-5.39,30.71-3.49,9.41,1.68,18.84,3.54,28.34,4.4,25.58,2.32,49.7-3.28,72.56-14.71.99-.5,1.88-.88,2.32-2.16,2.77-7.99-2.12-23.65-9.1-28.79-7.47-9.26-17.79-12.72-29.05-14.09-8.58-1.04-17.13-2.3-25.56-4.18-7.49-1.67-14.91-3.65-22.89-5.62,1.4,4.72,2.07,8.92,4.71,12.41.44,4.92,3.4,8.97,4.65,13.62.38,1.39,1.55,3.02.32,4.18-1.28,1.2-3.03.4-4.54-.25-9.1-3.97-15.35-10.66-19.03-19.84-1.25-3.12-1.84-6.57-4.39-9.06.31-1.53-.08-2.87-.74-4.28-2.02-4.28-5.07-7.77-8.98-10.18-10.65-6.57-22.26-8.31-34.48-5.71-4.78,1.02-9.44,2.55-13.57,5.24-10.18,6.63-13.25,17.11-15.06,28.24-1.09,1.52-2.15,1.41-3.03-.15-1.26-2.21-2.44-4.47-3.66-6.71-.63-2.14-1.27-4.28-2.02-6.83-2.81,2.4-5.27,4.63-7.87,6.7-5.13,4.07-6.78,8.83-3.23,14.77.06.11.16.19.24.29.7,5.42,3.46,10.27,4.88,15.96-5.09-1.3-7.81-5.31-11.9-6.98-.4-.47-.84-.92-1.18-1.43-2.06-3.04-3.62-2.38-5.19.52-2.26,4.18-3.3,8.69-4.46,13.24-1.06,4.14.3,7.15,2.96,9.99.34,3.6,3.85,5.62,4.96,9.25-3.12-.29-5.78-.53-8.43-.78-1.16-1.21-2.9-.39-4.21-1.21-.76-.48-1.07.11-1.1.83-.3,7.88-1.11,15.8,1.32,23.53-.15,6.15,1.65,11.97,3.22,17.8,2.19,8.1,5.63,15.84,7.01,24.19.84,5.06-.1,10.16.62,15.21-.33,1.55-.35,3.26-1.06,4.61-1.8,3.47-1.01,5.98,2.24,7.91,5.82,6.94,12.47,12.99,19.92,18.26-3.93.36-7.57.41-11.28-.09-4.96-.66-9.18-3.57-14.12-4.01-1.96-1.22-3.47-4.44-6.37-1.79-3.04,2.78-2.94,3.9.04,7.73.61.78,1.26,1.52,1.9,2.27,3.9,6.9,9.13,12.76,15.23,18.71-5.3.4-9.42-1.14-13.5-2.87-3.29-1.4-6.18-3.66-9.72-4.54-1.7-1.35-3.42-2.67-5.08-4.07-1.33-1.11-2.78-1.97-4.16-.42-1.41,1.6-4.38,2.49-2.61,5.8,1.3,2.42,2.02,5.15,2.99,7.75,1.59,7.36,5.51,13.78,8.94,20.76-2.1-.3-3.33-1.11-4.66-1.74-6.05-2.85-10.6-7.65-15.69-11.76-1.26-1.83-2.49-3.69-3.8-5.48-.33-.45-.95-1-1.43-.99-2.85.03-7.16,7.56-5.59,10.15,1.49,2.46,2.23,5.2,3.57,7.68,2.34,8.55,6.5,16.25,11.11,23.87-4.16-1.76-8.13-3.62-11.7-6.36-3.32-2.54-5.8-6.06-9.58-8.02-.36-1.85-2.1-2.58-3.16-3.86-3.08-3.72-3.1-3.67-6.26-.06-1.08,1.23-2.51,2.34-.73,4,1.88,1.74,3.85,3.4,5.78,5.09.3.66.45,1.45.91,1.97,7.85,8.92,13.22,19.2,16.78,30.47,2.44,7.72,4.11,15.61,4.96,23.68.18,1.68-.27,3.83,2.55,4.22,10.73,1.49,21.25,3.99,31.68,6.86,1.18.32,2.73,1.34,3.48.3.86-1.19-.55-2.41-1.3-3.51-6.51-9.57-14.8-17.35-24.06-24.18-2.12-1.56-4.1-3.52-3.07-6.61.76-2.27,4.73-3.93,7.66-3.28,2.92.65,5.74,1.61,8.44,2.92,18.63,9.01,31.05,23.74,38.93,42.56.94,2.25,2.2,3.61,4.36,4.64,7.74,3.7,15.51,7.34,22.74,12.02,7.54,4.87,14.71,10.26,21.28,16.36,3.12,2.9,2.82,3.23,5.11-.27,6.75-10.33,11.95-21.5,17.26-32.59,1-2.1,2.18-4.48,1.8-7.09,6.37-17.48,9.38-35.46,8.24-54.1-1.7,5.25-5.67,9.05-8.29,13.65-1.62,0-2.26,1.41-3.23,2.32-3.39,3.18-5.31,3.12-8.5-.18-2.15-2.22-4.38-4.37-6.61-6.5-1.55-1.48-2.62-1.67-3.8.71-8.66,17.51-28.41,26.07-46.55,22.59-13.43-2.58-22.48-10.62-28.69-22.28-1.85-3.47-.89-7.42,1.62-9.08,2.6-1.72,5.65-1.07,8.64,1.85,1.78,1.73,3.55,3.46,5.3,5.22,9.44,9.5,20.55,11.46,32.25,5.43,5.65-2.91,9.85-7.52,13.23-12.82,6.51-10.21,17.01-9.81,23.15-5.28,5.14,3.8,5.11,3.83,7.27-2.28.75-6.29-1.5-11.32-6.76-14.72-5.53-3.57-11.38-2.68-17.17-.47-6.51,2.49-11.72,6.98-17.06,11.24-2.67,2.13-5.18,2.18-7.72.19-3.61-2.83-7.11-5.8-10.62-8.74-1.68-1.41-3.15-3.16-5.64-3.06h0ZM72.39,413.68c4.45,0,8.07-.05,11.68,0,21.63.34,43.25,1.24,64.44,5.93,10.92,2.41,21.79,5.25,32.33,9.13,12.34,4.53,24.35,9.74,36.02,15.89,14.27,7.52,27.9,15.89,39.91,26.65,3.03,2.71,5.43,4.29,9.66,3.1,2.79-.78,3.73-1.6,3.71-4.57-.16-21.33-.25-42.66-.02-63.99.05-4.14-1.24-7.11-3.87-9.99-15.08-16.53-33.57-28.04-53.96-36.73-30.15-12.85-61.94-18.43-94.39-21.03-2.29-.18-3.26.7-4.28,2.52-9.3,16.63-18.69,33.22-28.07,49.81-4.26,7.54-8.53,15.08-13.18,23.28h.02ZM318.98,368.34c-10.97,6.77-20.81,14.91-30.03,23.91-5.08,4.97-8.58,10.25-7.16,17.72.21,1.08.02,2.24.02,3.36.01,18.96.06,37.92,0,56.88,0,2.34.78,3.06,3.01,4.05,5.59,2.48,9.05,0,12.46-3.83,1.4-1.57,3.08-2.92,4.74-4.22,32.11-25.25,68.9-40.01,108.59-48.07,20.12-4.09,40.6-4.42,61.06-4.55,2.3-.01,4.61,0,7.39,0-.67-1.37-.99-2.15-1.41-2.88-13.07-23.1-26.23-46.14-39.14-69.33-1.76-3.17-3.83-3.53-6.89-3.25-19.63,1.78-39.01,5.09-58.22,9.43-.96.22-1.92.2-2.76.94-8.08,7.17-17.74,11.96-26.79,17.65-4.22,2.65-8.76,4.77-13.65,5.96-5.95,1.44-8.06.7-11.21-3.77h0ZM504.47,452.13c-5.53-9.08-10.74-17.57-15.88-26.1-.91-1.51-2.11-1.82-3.76-1.73-14.45.74-28.89,1.41-43.31,2.63-38.36,3.26-74.23,14.28-107.62,33.44-10.29,5.9-20.19,12.35-29.38,19.88-.81.66-2.42,1.33-1.97,2.37.65,1.53,1.96,2.83,3.16,4.06,1.07,1.1,2.12-.12,3.05-.47,20.82-7.77,42.18-13.58,63.9-18.26,37.6-8.12,75.74-11.9,114.01-14.81,5.68-.43,11.38-.42,17.81-1.01h0ZM47.33,452.27c9.52.31,18.3,1,27.09,1.64,19.4,1.42,38.71,3.6,58.01,5.98,30.32,3.74,60.21,9.46,89.36,18.78,7.42,2.37,14.88,4.64,22.04,7.65,3.87,1.63,4.7-1.43,6.04-3.12,1.46-1.84-1.18-2.14-2.16-2.96-18.65-15.59-40.07-26.48-62.31-35.69-38.38-15.89-78.97-19.19-119.94-19.93-.99-.02-1.85-.02-2.5,1.1-5.06,8.7-10.19,17.34-15.63,26.55h0ZM328.57,354.89c1.62-.21,1.95-1.13,2.43-1.78,6.53-8.96,13.02-17.96,19.53-26.94,1.39-1.92,2.82-3.81,4.21-5.73,1.14-1.57,2.33-2.58,4.3-1.08,1.95,1.48,1.88,2.99.39,4.72-.65.75-1.21,1.59-1.81,2.38-7.42,9.86-14.84,19.71-22.25,29.58-.73.98-1.65,1.93-.18,3.18,1.04.88,1.7.88,2.86.1,8.29-5.53,16.66-10.92,24.97-16.41,4.91-3.24,9.28-7.16,13.29-11.45,3.56-3.81,3.58-4.76-.22-8.15-4-3.56-8.11-7.01-12.28-10.37-3.98-3.21-8.07-6.3-12.93-8.1-4.93-1.83-6.74-.81-8.27,4.09-2.11,6.77-4.42,13.47-6.62,20.22-2.73,8.37-5.32,16.78-7.42,25.73h0ZM275.67,489.36c-3.94-.61-7.95.32-11.83,1.57-2.74.88-5.11,3.1-5.62,5.76-.38,2,2.07,4.25,3.87,4.9,9.14,3.34,18.53,4.14,27.64-.03,4.89-2.24,4.72-6.36.08-9.24-4.3-2.67-8.97-3.42-14.13-2.96h-.01ZM405.74,222.65c-2.59.13-4.13,1.96-5,4.48-.91,2.65,1.72,2.56,2.92,3.48,1.48,1.13,3.16,1.98,4.69,3.05,8.14,5.7,15.99,11.78,23.69,18.05,1.67,1.36,2.99,1.89,4.65.08,2.57-2.78,2.22-5.39-1.74-8.82-7.82-6.79-16.24-12.82-24.79-18.64-1.2-.82-2.51-1.66-4.44-1.68h.02ZM304.75,16.87c8.74,3.52,17.84,5.78,27.01,7.75-7.64-7.28-16.62-9.96-27.01-7.75ZM339.58,122.15c1.78,3.38,2.53,6.86,4.86,9.73,2.94-3.34,6.9-5.59,8.07-10.37-4.27.21-8.33.41-12.93.64ZM371.1,158.89h5.47c1.04,0,2.08-.09,2.05-1.48-.08-3.89.16-7.81-.75-12.13-3.69,4.1-5.36,8.54-6.77,13.62h0ZM332.37,142.18c-3.27,2.57-6.11,4.8-9.26,7.26,3.78,1.55,7,2.88,10.49,4.31.28-3.94-.24-7.43-1.23-11.57h0ZM322.17,120.92c1.28,3.51,2.37,6.49,3.59,9.82,3.13-2.73,6.57-4.73,7.92-8.93-3.86-.3-7.42-.57-11.51-.89ZM308.14,141.42c3.24,1.59,6.01,3.86,9.9,5.14-.69-3.85,1.27-8.61-1.17-10.19-1.9-1.23-5.54,2.66-8.4,4.29-.08.05-.1.21-.33.76h0ZM348.13,147.6c-3.66,1.91-5.81,5.08-9.02,7.84,3.71.99,6.84,1.82,10.16,2.71.44-3.63-.43-6.91-1.14-10.54h0ZM408.5,104.3c-3.74,1.86-7.2,3.58-9.97,4.96,1.87,2.15,3.69,4.24,5.6,6.44,1.81-3.72,4.05-7.02,4.37-11.4h0ZM315.95,119.84c-3.47-.67-6.24-1.17-8.99-1.76-1.75-.37-1.99.36-1.49,1.78.71,2.03-.02,5.26,2.03,5.9,1.85.58,3.82-1.8,5.54-3.18.86-.69,1.61-1.5,2.91-2.74h0ZM362.83,151c-2.86,2.48-4.46,5.43-6.73,8.26.93.18,1.28.31,1.63.3,9.09-.02,9.73,2.23,5.09-8.57h.01ZM386.5,122.87c1.47-3.68,2.84-6.69,3.21-10.25-3.2,1.17-6.04,2.2-9.22,3.36,1.96,2.25,3.71,4.25,6.01,6.89ZM362.18,119.79c1.83,2.61,3.44,5.67,6.05,5.96,1.46.16,2-3.78,3.18-5.75.35-.58.79-1.24.27-2.08-2.99.59-6,1.18-9.49,1.87h0ZM391.05,319.59c-2.97,2.98-2.14,6.43-3.23,9.34,3.61.07,3.58,1.71,3.23-9.34Z"/>
  <path class="cls-4" d="M516.4,137.89c.4,4.14-1.39,8.13-3.88,11.74-4.73,6.86-9.69,13.55-14.61,20.27-.39.54-.53,1.81-2,.34-10.35-10.31-22.06-18.89-34.76-26.09-2.16-1.23-2.24-1.99-.84-3.82,4.16-5.43,8-11.12,12.27-16.46,7.32-9.16,17.55-12.43,27.46-9.1,9.68,3.25,16.33,12.46,16.36,23.12h0ZM493.09,122.16c-7.28,0-14.69,5.57-16.49,11.96-.37,1.3-.09,2.12,1.04,2.8,1.14.69,1.86.15,2.5-.73.59-.8,1.13-1.63,1.72-2.43,4.74-6.37,7.62-7.38,15.25-5.04,1.58.48,2.34-.12,3.09-1.18.92-1.31.34-2.35-.69-3.23-1.99-1.71-4.35-2.3-6.42-2.14h0Z"/>
  <path class="cls-4" d="M465,157.06c-9.27,12.25-18.52,24.44-27.73,36.65-2.28,3.03-4.77,5.74-8.58,6.84-1.84.53-3.66.61-5.5,0-5.13-1.69-5.65-3.06-2.52-7.25,10.43-13.97,20.93-27.89,31.32-41.89,1.35-1.82,2.21-2.4,4.22-.67,2.72,2.34,5.84,4.22,8.79,6.3v.02Z"/>
  <path class="cls-3" d="M156.74,241.93c5.08,4.11,9.64,8.91,15.69,11.76,1.34.63,2.57,1.44,4.66,1.74-3.43-6.99-7.35-13.4-8.94-20.76,2.95-3.02,5.9-6.03,8.85-9.05,3.54.88,6.43,3.14,9.72,4.54,4.08,1.73,8.2,3.26,13.5,2.87-6.11-5.95-11.33-11.81-15.23-18.71.37-3.34,3.29-5.3,4.43-8.22,4.95.44,9.17,3.35,14.12,4.01,3.72.49,7.35.44,11.28.09-7.44-5.27-14.09-11.32-19.92-18.26.26-.67.42-1.41.81-2.01,2.73-4.17,2.46-7.73-1.99-10.51-.71-5.05.22-10.15-.62-15.21-1.39-8.35-4.82-16.09-7.01-24.19-1.57-5.83-3.37-11.65-3.22-17.8.3-.91.76-1.8.88-2.74.82-6.84,1.68-13.67,3.12-20.41,2.65.25,5.31.49,8.43.78-1.12-3.63-4.63-5.65-4.96-9.25,1.03-8,3.86-15.37,7.87-22.32,4.1,1.67,6.81,5.68,11.9,6.98-1.42-5.68-4.17-10.54-4.87-15.96,1.86-2.51,3.67-5.07,5.6-7.53,2.15-2.73,3.7-6.07,7.28-7.4,1.22,2.24,2.4,4.5,3.66,6.71.89,1.56,1.94,1.67,3.03.15,1.02-.65,1.21-1.81,1.77-2.76,3.62-6.19,7.4-12.24,13.03-16.9,11.53-9.53,31.71-9.51,45.03-2.06,4.53,2.54,8.49,5.89,13.01,8.41,2.56,2.49,3.14,5.94,4.39,9.06,3.68,9.18,9.93,15.87,19.03,19.84,1.5.66,3.25,1.45,4.54.25,1.24-1.16.06-2.79-.32-4.18-1.25-4.64-4.21-8.7-4.65-13.62,2.35-.56,4.36.74,6.46,1.31,10.63,2.85,21.38,5.26,32.36,5.66,11.51.42,23.02.2,33.98,4.51,6.98,5.15,11.87,20.81,9.1,28.79-.44,1.28-1.33,1.66-2.32,2.16-22.87,11.43-46.98,17.03-72.56,14.71-9.5-.86-18.93-2.72-28.34-4.4-10.63-1.9-20.68-.35-30.71,3.49-10.67,4.08-21.23,3-31.26-2.6-.64-.36-1.35-.59-2.05-.85-2.58-.96-4.92-.75-6.74,1.54-2.03,2.56-1.01,5.06.61,7.19,2.53,3.3,6.11,5.42,9.62,7.54.53.32,1.08.67,1.66.85,12.36,3.96,21.74,13.37,33.58,18.32,9.34,3.91,17.34,10.31,26.42,14.77,3.53,1.73,6.47,4.62,9.88,6.66,11.79,7.05,24.79,10.78,38.15,13.41,7.11,1.4,14.31,1.77,21.55,1.64,1.01-.02,2.53-.68,2.95.7.32,1.04-.61,2.09-1.4,2.91-5.3,5.5-12.02,7.91-19.41,8.36-12.29.74-24.29-1.63-36.25-4.03-13.3-2.66-26.37-6.06-38.54-12.31-4.09-2.1-7.71-4.86-11.15-7.87-1.4-1.23-2.84-2.41-4.23-3.65-2.48-2.2-5.02-2.51-7.62-.26-2.87,2.48-2.29,5.4-.54,8.06,4.71,7.16,10.81,12.97,17.96,17.68,1,.66,2.29.96,2.97,2.61-9.33-1.1-17.97-3.58-26.22-7.49-10.93-5.17-17.92-14-22.87-24.7-1.25-2.71-2.49-5.44-3.76-8.14-1.29-2.74-3.52-3.99-6.41-3.2-2.69.74-4.04,2.89-3.95,5.68.15,4.81,1.78,9.26,3.7,13.6,8.16,18.35,21.38,31.12,40.87,36.96,8.52,2.56,17.51,4.05,24.35,10.52,1.78,1.69,3.63,3.3,6.1,5.54-4.52.05-8.13.38-11.8-.37-8.36-1.71-16.9-2.69-24.62-6.72-.55-.29-1.3-.56-1.69.06-.63,1.01.25,1.64.95,2.1,3.93,2.61,7.8,5.35,11.89,7.71,4.2,2.42,8.63,4.42,12.95,6.64,4.87,2.5,10.03,2.85,15.25,1.72,2.47-.53,3.82-.13,5.03,2.25,3.43,6.73,7.15,13.31,10.76,19.94.59,1.09,1.15,2.23,2.48,2.62.5,1.21,1.65.85,2.57,1.08,5.17,1.31,9.79,3.52,12.93,8.08-5.67.62-11.31,1.4-16.82,2.96-1.84.52-3.31.43-4.44-1.92-4.59-9.53-11.92-15.94-22.66-17.37-10.99-1.46-20.86,1.8-29.89,8.09-2.57,1.79-4.37,5.8-7.72,5.06-2.79-.61-5.1-3.37-7.62-5.18-4.58-3.27-9.49-5.88-14.91-7.48-3.09-.91-6.14-.84-9.13.38-1.42.58-2.78,1.43-2.88,3.11-.1,1.67,1.37,2.25,2.62,2.79,4.67,2.01,9.27,4.13,12.69,8.09.39.46.68,1.01,1.01,1.51-.23.84.22,1.37.76,1.95,5.29,5.71,10.6,11.4,15.79,17.19,1.72,1.92,3.03,2.16,5.31.57,5.03-3.51,9.8-7.48,15.47-10,8.29-3.7,16.23-3.79,23.76,2.06,1.48,1.15,1.96,3.2,3.89,3.8-2.16,6.11-2.13,6.07-7.27,2.28-6.14-4.53-16.65-4.93-23.15,5.28-3.38,5.3-7.59,9.91-13.23,12.82-11.7,6.03-22.81,4.07-32.25-5.43-1.75-1.76-3.52-3.49-5.3-5.22-2.99-2.92-6.05-3.56-8.64-1.85-2.51,1.66-3.47,5.61-1.62,9.08,6.22,11.67,15.26,19.71,28.69,22.28,18.14,3.48,37.89-5.08,46.55-22.59,1.18-2.38,2.25-2.2,3.8-.71,2.24,2.14,4.47,4.28,6.61,6.5,3.19,3.3,5.11,3.36,8.5.18.97-.91,1.6-2.31,3.23-2.32.78,7.16,0,14.33-2.39,20.94-4.79,13.27-8.42,27.12-17.09,38.8,4.06-1.81,6.28-5.62,9.51-8.26,3.9-3.19,6.03-7.95,10.01-11.04.38,2.6-.8,4.99-1.8,7.09-5.31,11.09-10.51,22.26-17.26,32.59-2.29,3.5-1.99,3.17-5.11.27-6.56-6.1-13.73-11.48-21.28-16.36-7.23-4.67-15-8.32-22.74-12.02-2.15-1.03-3.41-2.38-4.36-4.64-7.88-18.81-20.3-33.54-38.93-42.56-2.7-1.31-5.52-2.26-8.44-2.92-2.93-.66-6.91,1.01-7.66,3.28-1.03,3.09.95,5.04,3.07,6.61,9.27,6.84,17.56,14.61,24.06,24.18.75,1.1,2.16,2.32,1.3,3.51-.75,1.04-2.3.03-3.48-.3-10.43-2.87-20.95-5.37-31.68-6.86-2.82-.39-2.37-2.55-2.55-4.22-.85-8.07-2.52-15.95-4.96-23.68-3.56-11.27-8.93-21.55-16.78-30.47-.46-.52-.61-1.31-.91-1.97.44-2.58,2.5-3.79,4.37-5.16,3.78,1.97,6.26,5.48,9.58,8.02,3.57,2.74,7.54,4.6,11.7,6.36-4.61-7.62-8.77-15.32-11.11-23.87.7-4.89,4.17-8,7.26-11.36h-.02ZM364.96,73.88c-1.04,2.25.15,3.85,1.74,5.1,1.89,1.48,3.43.11,4.91-1.02,3.26,1.77,6.44,3.69,9.79,5.27,3.46,1.64,4.95.46,4.53-3.38-.28-2.62-1.25-5.06-2.53-7.32-3.88-6.83-11.43-9.67-18.05-6.89-2.02.85-3.8,2.21-3.93,4.46-.12,2.12,1.65,3.17,3.53,3.78h0ZM286.34,74.29l-.07.05c1.18.25,1.94-.57,2.47-1.3,7.1-9.76,5.62-22.48-2.59-30.46-7.96-7.73-17.44-10.66-28.56-7.32-8.81,2.65-14.99,7.85-17.37,16.75-1.28,4.8.01,9.47,2.54,13.92,1.73,3.05,4.67.75,6.56,2.26.08.07.24.04.36.06,2.15,5.2,5.15,9.74,10.47,12.11,9.5,4.25,18.07,2.79,25.54-4.58.38-.43.99-.76.64-1.51v.02Z"/>
  <path class="cls-1" d="M72.39,413.68c4.64-8.2,8.92-15.74,13.18-23.28,9.37-16.6,18.76-33.18,28.07-49.81,1.02-1.82,1.99-2.7,4.28-2.52,32.45,2.6,64.24,8.18,94.39,21.03,20.39,8.69,38.88,20.2,53.96,36.73,2.63,2.89,3.92,5.86,3.87,9.99-.23,21.33-.14,42.66.02,63.99.02,2.97-.92,3.79-3.71,4.57-4.22,1.18-6.63-.39-9.66-3.1-12.01-10.75-25.65-19.13-39.91-26.65-11.67-6.15-23.68-11.36-36.02-15.89-10.54-3.87-21.41-6.71-32.33-9.13-21.19-4.69-42.81-5.59-64.44-5.93-3.61-.06-7.23,0-11.68,0h-.02ZM131.55,374.04c-2.39-.19-4.32.55-4.73,3.11-.43,2.7,1.64,3.1,3.69,3.68,2.09.59,4.2.38,6.26.73,13.61,2.34,27.18,4.89,40.43,8.87,22.9,6.88,44.88,15.73,64.06,30.45,1.68,1.29,3.6,2.79,5.48.35,1.77-2.29.26-4.07-1.44-5.42-3.02-2.4-6.14-4.7-9.36-6.82-17.96-11.86-37.8-19.41-58.31-25.53-15.11-4.51-30.6-6.87-46.08-9.43h0ZM140.6,355.17c-2.02-.06-3.83.47-4.09,3.08-.25,2.52,1.58,3.16,3.48,3.56,1.83.39,3.69.57,5.54.88,24.42,4.2,48.13,10.7,70.56,21.45,11.29,5.41,21.98,11.72,31.37,20.1,2.53,2.26,5.68,1.44,6.08-1.39.29-2.06-1.21-3.22-2.51-4.32-5.43-4.59-11.02-8.99-17.16-12.62-19.69-11.62-40.87-19.46-63.02-24.86-9.93-2.42-19.91-4.51-30.24-5.89h0ZM121.74,393.69c-2.61-.29-4.46.96-4.6,3.1-.18,2.79,1.79,3.19,3.89,3.44,3.84.46,7.68.87,11.51,1.42,25.79,3.69,50.68,10.5,74.36,21.49,7.47,3.46,14.74,7.3,21.59,11.88,1.95,1.3,4.54,2.49,6.01.44,1.5-2.08-.53-4.14-2.33-5.63-.38-.32-.77-.65-1.19-.91-4.14-2.55-8.16-5.33-12.45-7.58-30.34-15.89-62.84-24.32-96.79-27.66h0Z"/>
  <path class="cls-1" d="M318.98,368.34c3.15,4.46,5.26,5.21,11.21,3.77,4.89-1.18,9.44-3.31,13.65-5.96,9.06-5.69,18.71-10.48,26.79-17.65.83-.74,1.8-.72,2.76-.94,19.21-4.34,38.59-7.66,58.22-9.43,3.07-.28,5.13.09,6.89,3.25,12.91,23.19,26.07,46.24,39.14,69.33.41.73.74,1.51,1.41,2.88-2.78,0-5.08-.01-7.39,0-20.46.13-40.94.46-61.06,4.55-39.68,8.06-76.48,22.82-108.59,48.07-1.66,1.31-3.34,2.65-4.74,4.22-3.41,3.83-6.86,6.31-12.46,3.83-2.23-.99-3.02-1.72-3.01-4.05.06-18.96.01-37.92,0-56.88,0-1.12.18-2.28-.02-3.36-1.41-7.47,2.08-12.76,7.16-17.72,9.21-9,19.06-17.15,30.03-23.91h.01ZM425.57,377.55c.14-2.5-2.41-4-5.95-3.5-26.98,3.79-53.27,10.15-78.23,21.37-12.13,5.46-23.72,11.8-34.01,20.32-1.82,1.5-3.45,3.34-1.51,5.68,1.76,2.12,3.76,1.18,5.57-.28,15.32-12.41,33.06-20.26,51.38-26.87,18.92-6.83,38.48-11.1,58.44-13.47,2.28-.27,3.73-1.13,4.3-3.24h.01ZM412.16,354.82c-4.57.67-9.04,1.64-13.54,2.42-24.05,4.18-46.92,11.81-68.74,22.71-10.4,5.19-20.09,11.46-28.87,19.08-1.68,1.46-3.03,3.26-1.17,5.46,1.88,2.22,3.79,1.06,5.56-.3,3.16-2.43,6.19-5.05,9.45-7.32,18.2-12.68,38.48-20.88,59.6-27.12,12.4-3.66,25.05-6.36,37.86-8.25,2.23-.33,3.98-1.22,3.87-3.66-.11-2.33-2.02-2.88-4-3.02h-.02ZM430.33,393.28c-.99.1-1.99.17-2.98.31-15.99,2.24-31.92,4.78-47.43,9.46-19.85,5.98-39.12,13.28-56.65,24.6-1.78,1.15-3.58,2.3-4.75,4.14-.77,1.2-1.25,2.51-.13,3.75,1.04,1.15,2.36,1.39,3.73.65,1.31-.7,2.61-1.46,3.83-2.31,7.26-5.11,15.19-9.13,23.27-12.58,26.12-11.14,53.26-18.69,81.66-21.18,2.36-.21,4.24-1.3,3.9-3.96-.31-2.42-2.21-3.09-4.46-2.87h.01Z"/>
  <path class="cls-2" d="M98.39,256.16c13.43,9.31,23.82,21.5,32.64,35.05,6,9.21,9.17,19.57,10.72,30.44.4,2.8-.32,3.87-3.33,3.43-4.18-.61-8.41-1.04-12.64-1.21-2.69-.11-3.11-1.12-2.52-3.5,1.83-7.37,1.03-14.57-1.67-21.61-.81-2.11-1.91-4.07-3.34-5.81-.82-1-1.87-1.81-3.24-1.3-1.37.51-1.03,1.88-1.04,2.92-.05,6.97.84,13.96-.6,20.89-.08.37-.03.77-.17,1.11-.72,1.8-.09,4.74-2.1,5.28-2.67.72-5.73.62-8.5.14-1.66-.29-1.98-2.65-2.69-4.2-4.27-9.24-6.25-19.14-8.21-29.03-.34-1.7-.81-3.39-1.3-5.06-.44-1.48-1.04-2.92-2.93-2.9-1.82.03-2.15,1.64-2.43,2.88-.73,3.25-1.22,6.55-1.88,10.22-2.17-1.69-4.03-3.29-6.04-4.66-1.54-1.04-3.22-1.92-4.94-2.62-1.61-.65-3.55-1.2-5,.04-1.7,1.45-.48,3.32.18,4.83,1.99,4.55,4.16,9.01,6.39,13.79-1.68.08-2.95-.64-4.23-1.2-7.72-3.37-15.81-4.15-24.1-3.6-1.84.12-3.64.48-3.96,2.64-.29,1.99,1.28,2.84,2.84,3.43,10.84,4.1,21.79,7.9,31.98,13.53,6.08,3.35,11.38,7.49,15.46,13.26,2.24,3.18-.53,4.75-1.4,6.92-.94,2.33-2.68,1.03-4.1.56-4.27-1.4-8.58-2.58-13.09-2.89-2.56-.18-4.13-.9-4.55-4.04-.73-5.45-5.62-7.51-9.96-4.65-1.2.79-2.27,1.8-2.1,3.3.35,2.98-1.31,3.19-3.59,3.09-3.12-.13-6.25.13-9.21,1.2-1.01.36-2.2.82-2.19,2.25.02,1.47,1.23,1.74,2.3,2.04,2.64.72,5.26,1.63,7.95,2.03,10.49,1.56,20.26,5.86,30.65,7.8,1.44.27,1.85.99,1.01,2.37-1.43,2.33-2.77,4.73-4.11,7.11-.63,1.12-1.59,1.39-2.8,1.44-22.88,1.04-40.17-8.42-52.14-27.78-1.81-2.93-3.2-6.13-4.92-9.47h9.9c3.37,0,6.74.15,10.1-.05,5.75-.34,7.04-2.53,3.98-7.34-6.38-10.04-11.87-20.46-15.1-31.95-1.11-3.94-2.07-7.92-3.11-11.88.97-2.17.31-4.4.24-6.6-.18-5.45-.35-10.9,1.14-16.23,15.36,4.96,28.85,13.07,40.94,25.13.38-10.82-.87-20.74,1-30.52,2.95-3.29,5.79-1.61,8.72.1,2.99,1.74,6.03,3.42,9.13,4.96,3.99,1.99,7.59,4.76,11.99,5.89l-.03.03Z"/>
  <path class="cls-2" d="M482.88,248.22c1.06,6.93.47,13.91.62,20.87.03,1.48,0,2.97,0,4.67,5.33-1.23,8.19-5.68,12.17-8.46,9.51-6.63,19.9-11.32,30.77-15.13,2.2-.77,2.15.16,2.08,1.89-1.05,23.14-7.14,44.66-20.29,63.96-.76,1.12-1.4,2.36-1.92,3.61-1.04,2.48-.07,4.12,2.4,4.89,3.29,1.02,6.67.68,10.03.43,4.07-.31,8.13-.61,12.6-.24-8.26,20.8-23.24,32.92-44.76,36.93-3.99.74-8.21.14-12.33.25-2.03.05-2.42-1.52-2.96-2.85-1.01-2.49-4.09-4.9-3.07-7.19.9-2.02,4.68-1.62,7.15-2.41,9.74-3.09,19.61-5.66,29.6-7.82,1.86-.4,4.84-.57,4.85-2.68.01-2.5-3.03-2.45-5.01-2.79-2.69-.46-5.43-.79-8.15-.76-1.41.01-2.19.03-2.02-1.58.38-3.53-1.73-4.98-4.75-5.49-3.45-.58-6.49.95-6.95,4.16-.68,4.75-3.16,5.73-7.29,5.96-4.21.24-8.34,1.35-12.21,3.2-.33.16-.69.41-1.01.37-1.46-.17-4.23-7.18-3.39-8.42,6.95-10.28,17.73-14.97,28.56-19.54,6.49-2.74,13.09-5.21,19.59-7.92,1.25-.52,3.11-1.09,2.67-2.98-.41-1.78-2.13-2.47-3.78-2.56-4.23-.24-8.46-.37-12.68.39-5.36.97-10.49,2.71-16.44,5.06,2.19-4.96,4.1-8.95,5.72-13.06.77-1.96,2.74-4.38.62-6.18-2.14-1.82-4.75-.31-6.99.78-3.22,1.57-6.02,3.77-8.88,6.74-.89-3.64-.27-6.81-1.26-9.77-.61-1.82-1.1-3.88-3.33-4.01-2.02-.12-2.37,1.98-2.95,3.4-1.43,3.47-1.96,7.19-2.78,10.83-1.85,8.24-3.73,16.45-7,24.32-2.16,5.19-6.28,2.79-9.62,3.07-2.96.25-2.33-2.69-2.79-4.39-1.98-7.33-1.59-14.82-1.33-22.31.06-1.62.72-3.92-1.64-4.39-2.12-.43-3,1.42-4.06,3.08-4.99,7.89-5.05,16.44-3.56,25.17.51,3,.58,4.73-3.33,4.72-4.21,0-8.43.65-12.62,1.23-3.03.41-3.44-.69-3.16-3.52,1.85-19.1,11.22-34.32,24.3-47.64,1.38-1.4,2.23-3.82,4.9-3.53-6.44,8.84-12.83,17.71-16.49,28.2.83-.12,1.41-.42,1.72-.89,6.67-10.05,14.72-18.89,23.4-27.25,9.7-9.34,20.28-17.52,31.38-25.08,1.99-1.36,3.33-1.41,3.8,1.41.34,2.04.88,4.05,1.37,6.27.18-1.83.35-3.43.51-5.03h0Z"/>
  <path class="cls-1" d="M504.47,452.13c-6.43.59-12.13.58-17.81,1.01-38.27,2.91-76.41,6.69-114.01,14.81-21.71,4.69-43.08,10.49-63.9,18.26-.94.35-1.98,1.57-3.05.47-1.2-1.23-2.5-2.53-3.16-4.06-.45-1.05,1.17-1.71,1.97-2.37,9.18-7.52,19.09-13.97,29.38-19.88,33.39-19.16,69.25-30.18,107.62-33.44,14.43-1.23,28.87-1.89,43.31-2.63,1.65-.08,2.85.22,3.76,1.73,5.15,8.53,10.35,17.02,15.88,26.1h0ZM318.93,475.88c1.75.6,2.61-.05,3.48-.4,12.38-4.87,24.73-9.88,37.46-13.71,29.48-8.85,59.73-13.61,90.38-15.99,6.47-.5,12.95-.86,19.42-1.34,2.51-.19,4-1.74,3.84-4.16-.15-2.26-1.99-2.94-4.11-2.83-1,.05-2,.04-2.99.09-24.44,1.09-48.77,3.36-72.73,8.43-19.45,4.12-38.87,8.63-56.92,17.32-6.42,3.09-12.71,6.69-17.83,12.59h0Z"/>
  <path class="cls-1" d="M47.33,452.27c5.43-9.21,10.57-17.86,15.63-26.55.65-1.12,1.51-1.12,2.5-1.1,40.96.74,81.56,4.04,119.94,19.93,22.24,9.21,43.66,20.1,62.31,35.69.98.82,3.62,1.13,2.16,2.96-1.34,1.69-2.17,4.74-6.04,3.12-7.16-3.01-14.62-5.28-22.04-7.65-29.15-9.33-59.04-15.04-89.36-18.78-19.3-2.38-38.61-4.56-58.01-5.98-8.78-.64-17.56-1.33-27.09-1.64h0ZM232.45,475.7c-.7-1.85-2.25-2.91-3.72-3.94-7.02-4.93-14.39-8.98-22.52-12.09-11.93-4.56-24.22-7.72-36.45-11.13-10.81-3.02-21.93-4.55-33.01-6.21-17.4-2.61-34.91-3.89-52.47-4.62-2.47-.1-5.39-.47-5.61,3.21-.22,3.66,2.62,3.64,5.16,3.82,8.45.62,16.93,1.04,25.36,1.91,19.42,2,38.76,4.51,57.89,8.59,21.4,4.57,41.81,12.02,62.09,19.99,1,.39,1.95,1.19,3.29.47h-.01Z"/>
  <path class="cls-1" d="M328.57,354.89c2.1-8.95,4.69-17.36,7.42-25.73,2.2-6.74,4.51-13.45,6.62-20.22,1.53-4.9,3.34-5.91,8.27-4.09,4.86,1.8,8.96,4.89,12.93,8.1,4.17,3.37,8.28,6.81,12.28,10.37,3.8,3.38,3.79,4.33.22,8.15-4.01,4.29-8.38,8.2-13.29,11.45-8.31,5.49-16.69,10.88-24.97,16.41-1.16.77-1.83.78-2.86-.1-1.47-1.25-.55-2.2.18-3.18,7.41-9.87,14.83-19.72,22.25-29.58.6-.8,1.16-1.63,1.81-2.38,1.49-1.73,1.55-3.23-.39-4.72-1.97-1.5-3.16-.49-4.3,1.08-1.39,1.92-2.82,3.81-4.21,5.73-6.51,8.98-13,17.98-19.53,26.94-.48.66-.81,1.58-2.43,1.78h0Z"/>
  <path class="cls-1" d="M393.44,60.76c-10.96-4.31-22.47-4.09-33.98-4.51-10.98-.4-21.73-2.81-32.36-5.66-2.1-.56-4.11-1.87-6.46-1.31-2.63-3.49-3.31-7.7-4.71-12.41,7.99,1.98,15.4,3.96,22.89,5.62,8.43,1.88,16.98,3.14,25.56,4.18,11.26,1.37,21.58,4.83,29.05,14.09h0Z"/>
  <path class="cls-1" d="M297.65,37.92c-4.52-2.52-8.48-5.87-13.01-8.41-13.31-7.45-33.5-7.47-45.03,2.06-5.63,4.65-9.41,10.71-13.03,16.9-.55.95-.75,2.12-1.77,2.76,1.81-11.13,4.88-21.61,15.06-28.24,4.13-2.69,8.79-4.22,13.57-5.24,12.22-2.6,23.83-.87,34.48,5.71,3.91,2.41,6.96,5.9,8.98,10.18.67,1.41,1.05,2.76.74,4.28h0Z"/>
  <path class="cls-1" d="M294.46,336.38c-3.98,3.09-6.11,7.85-10.01,11.04-3.23,2.64-5.46,6.45-9.51,8.26,8.67-11.68,12.29-25.54,17.09-38.8,2.39-6.6,3.17-13.78,2.39-20.94,2.62-4.6,6.59-8.4,8.29-13.65,1.14,18.63-1.87,36.61-8.24,54.1h-.01Z"/>
  <path class="cls-1" d="M482.88,248.22c-.16,1.6-.32,3.2-.51,5.03-.49-2.22-1.04-4.23-1.37-6.27-.47-2.81-1.8-2.76-3.8-1.41-11.1,7.56-21.68,15.74-31.38,25.08-8.68,8.36-16.72,17.2-23.4,27.25-.31.47-.89.77-1.72.89,3.66-10.48,10.05-19.35,16.49-28.2,12.01-13.66,27.06-23.24,42.78-31.93,2.13-1.18,2.5-.25,2.5,1.74,0,2.61.26,5.21.4,7.81h.01Z"/>
  <path class="cls-1" d="M288.5,275.64c-1.93-.6-2.41-2.65-3.89-3.8-7.53-5.85-15.46-5.76-23.76-2.06-5.67,2.53-10.43,6.5-15.47,10-2.28,1.59-3.59,1.35-5.31-.57-5.2-5.79-10.5-11.48-15.79-17.19-.54-.58-.98-1.11-.76-1.95,2.49-.1,3.96,1.65,5.64,3.06,3.52,2.94,7.01,5.92,10.62,8.74,2.54,1.99,5.05,1.95,7.72-.19,5.33-4.26,10.55-8.75,17.06-11.24,5.79-2.21,11.64-3.1,17.17.47,5.27,3.4,7.52,8.43,6.76,14.72h.01Z"/>
  <path class="cls-1" d="M275.67,489.36c5.16-.46,9.84.29,14.13,2.96,4.64,2.89,4.81,7-.08,9.24-9.11,4.18-18.5,3.37-27.64.03-1.79-.66-4.25-2.9-3.87-4.9.51-2.66,2.88-4.88,5.62-5.76,3.88-1.25,7.89-2.18,11.83-1.57h.01Z"/>
  <path class="cls-1" d="M405.74,222.65c1.93.02,3.24.86,4.44,1.68,8.55,5.83,16.96,11.86,24.79,18.64,3.96,3.43,4.31,6.04,1.74,8.82-1.67,1.8-2.98,1.28-4.65-.08-7.7-6.28-15.56-12.35-23.69-18.05-1.53-1.07-3.21-1.92-4.69-3.05-1.21-.92-3.84-.82-2.92-3.48.87-2.52,2.4-4.35,5-4.48h-.02Z"/>
  <path class="cls-1" d="M323.29,260.02c-3.15-4.56-7.76-6.77-12.93-8.08-.92-.23-2.07.13-2.57-1.08,5.91-1.98,11.85-3.88,17.68.13,4.56,3.13,6.26,8.88,4.23,14.33-2.41-1.49-3.78-4.2-6.4-5.29h-.01Z"/>
  <path class="cls-1" d="M218.13,44.37c-3.58,1.32-5.14,4.67-7.28,7.4-1.93,2.46-3.74,5.02-5.6,7.53-.08-.1-.18-.18-.24-.29-3.55-5.94-1.89-10.69,3.23-14.77,2.6-2.06,5.06-4.3,7.87-6.7.76,2.55,1.39,4.69,2.02,6.83Z"/>
  <path class="cls-1" d="M198.21,68.28c-4.02,6.95-6.85,14.31-7.87,22.32-2.66-2.83-4.02-5.85-2.96-9.98,1.16-4.55,2.21-9.06,4.46-13.24,1.57-2.9,3.12-3.56,5.19-.52.35.51.79.95,1.18,1.43h0Z"/>
  <path class="cls-1" d="M98.39,256.16c-4.4-1.14-8.01-3.91-11.99-5.89-3.1-1.54-6.14-3.22-9.13-4.96-2.93-1.71-5.77-3.39-8.72-.1.17-2.45.34-4.91.54-7.66,10.88,4.97,20.6,10.99,29.31,18.62h0Z"/>
  <path class="cls-1" d="M156.74,241.93c-3.1,3.35-6.56,6.47-7.26,11.36-1.34-2.48-2.08-5.22-3.57-7.68-1.57-2.58,2.74-10.12,5.59-10.15.48,0,1.1.54,1.43.99,1.32,1.79,2.54,3.65,3.8,5.48h.01Z"/>
  <path class="cls-1" d="M177,225.62c-2.95,3.02-5.9,6.03-8.85,9.05-.98-2.59-1.7-5.32-2.99-7.74-1.77-3.3,1.19-4.2,2.61-5.8,1.37-1.55,2.83-.69,4.16.42,1.66,1.4,3.38,2.72,5.08,4.07h0Z"/>
  <path class="cls-1" d="M304.75,16.87c10.39-2.21,19.37.47,27.01,7.75-9.18-1.97-18.27-4.22-27.01-7.75Z"/>
  <path class="cls-1" d="M186.87,99.07c-1.44,6.74-2.3,13.57-3.12,20.41-.11.93-.57,1.83-.88,2.74-2.43-7.73-1.62-15.64-1.32-23.53.03-.72.34-1.31,1.1-.83,1.31.82,3.05,0,4.21,1.21h0Z"/>
  <path class="cls-1" d="M339.58,122.15c4.6-.23,8.66-.43,12.93-.64-1.16,4.78-5.13,7.03-8.07,10.37-2.33-2.87-3.09-6.35-4.86-9.73Z"/>
  <path class="cls-1" d="M139.31,262.77c-1.87,1.37-3.92,2.58-4.37,5.16-1.93-1.69-3.9-3.34-5.78-5.09-1.78-1.65-.35-2.77.73-4,3.17-3.61,3.19-3.66,6.26.06,1.06,1.28,2.8,2.01,3.16,3.86h0Z"/>
  <path class="cls-1" d="M371.1,158.89c1.41-5.08,3.08-9.52,6.77-13.62.9,4.32.67,8.24.75,12.13.03,1.4-1.01,1.48-2.05,1.48h-5.47Z"/>
  <path class="cls-1" d="M332.37,142.18c.99,4.14,1.5,7.63,1.23,11.57-3.48-1.43-6.71-2.76-10.49-4.31,3.14-2.47,5.99-4.7,9.26-7.26h0Z"/>
  <path class="cls-1" d="M322.17,120.92c4.09.32,7.65.59,11.51.89-1.36,4.19-4.79,6.2-7.92,8.93-1.22-3.33-2.3-6.31-3.59-9.82h0Z"/>
  <path class="cls-1" d="M308.14,141.42c.24-.55.25-.71.33-.76,2.86-1.63,6.5-5.52,8.4-4.29,2.44,1.59.48,6.34,1.17,10.19-3.89-1.28-6.66-3.56-9.9-5.14h0Z"/>
  <path class="cls-1" d="M348.13,147.6c.71,3.63,1.58,6.92,1.14,10.54-3.32-.89-6.45-1.72-10.16-2.71,3.21-2.76,5.36-5.93,9.02-7.84h0Z"/>
  <path class="cls-1" d="M408.5,104.3c-.32,4.38-2.55,7.68-4.37,11.4-1.91-2.2-3.73-4.29-5.6-6.44,2.77-1.38,6.23-3.1,9.97-4.96h0Z"/>
  <path class="cls-1" d="M26.61,250.6c-1.49,5.33-1.32,10.78-1.14,16.23.07,2.2.73,4.43-.24,6.6-.94-6.56-2.54-13.01-2.64-19.7-.07-4.56-.26-4.55,4.02-3.13Z"/>
  <path class="cls-1" d="M189.41,206.1c-1.14,2.92-4.06,4.88-4.43,8.22-.64-.76-1.29-1.49-1.9-2.27-2.99-3.83-3.08-4.95-.04-7.73,2.9-2.66,4.41.57,6.37,1.79h0Z"/>
  <path class="cls-1" d="M315.95,119.84c-1.3,1.24-2.06,2.05-2.91,2.74-1.72,1.38-3.68,3.77-5.54,3.18-2.04-.64-1.31-3.87-2.03-5.9-.5-1.43-.26-2.16,1.49-1.78,2.75.59,5.51,1.08,8.99,1.76h0Z"/>
  <path class="cls-1" d="M362.83,151c4.64,10.8,4,8.54-5.09,8.57-.35,0-.7-.13-1.63-.3,2.27-2.83,3.87-5.78,6.73-8.26h-.01Z"/>
  <path class="cls-1" d="M386.5,122.87c-2.3-2.63-4.05-4.64-6.01-6.89,3.18-1.16,6.02-2.19,9.22-3.36-.37,3.55-1.74,6.57-3.21,10.25Z"/>
  <path class="cls-1" d="M362.18,119.79c3.5-.69,6.5-1.28,9.49-1.87.52.84.08,1.5-.27,2.08-1.18,1.98-1.72,5.91-3.18,5.75-2.61-.29-4.22-3.35-6.05-5.96h0Z"/>
  <path class="cls-1" d="M193.72,179.41c4.46,2.78,4.73,6.35,1.99,10.51-.39.59-.55,1.33-.81,2.01-3.25-1.93-4.04-4.44-2.24-7.91.7-1.36.72-3.06,1.06-4.61h0Z"/>
  <path class="cls-1" d="M391.05,319.59c.35,11.05.38,9.41-3.23,9.34,1.09-2.91.26-6.36,3.23-9.34Z"/>
  <path class="cls-1" d="M447.64,239.35c-.25.6-.95,1.06-1.29.71-.51-.53.24-.98.65-1.37.21.22.42.44.64.66Z"/>
  <path class="cls-1" d="M303.84,357.68c-.25.16-.62.5-.73.43-.6-.39-.09-.68.16-.99.19.18.38.37.57.55h0Z"/>
  <path class="cls-1" d="M493.09,122.16c2.07-.16,4.43.43,6.42,2.14,1.03.89,1.61,1.93.69,3.23-.75,1.07-1.51,1.67-3.09,1.18-7.64-2.34-10.52-1.32-15.25,5.04-.59.8-1.13,1.63-1.72,2.43-.64.88-1.36,1.41-2.5.73-1.13-.68-1.41-1.5-1.04-2.8,1.81-6.39,9.21-11.97,16.49-11.96h0Z"/>
  <path class="cls-4" d="M249.69,68.27c-.12-.02-.28,0-.36-.06-1.89-1.51-4.83.79-6.56-2.26-2.53-4.45-3.83-9.12-2.54-13.92,2.38-8.9,8.56-14.1,17.37-16.75,11.13-3.34,20.6-.42,28.56,7.32,8.21,7.98,9.68,20.7,2.59,30.46-.53.73-1.29,1.54-2.47,1.3-.09-.92.6-1.88-.17-2.84-5.32,3.66-10.8,5.53-17.29,2.92-7.44-2.99-10.81-11.08-7.26-18.36,1.42-2.91,3.76-5.02,6.79-5.57,2.9-.53,5.97-.74,8.02,2.78,1.43,2.45,3.96,1.92,5.57-.54,1.53-2.33.16-4-1.31-5.5-4.8-4.91-10.7-6.12-17.11-4.26-6.71,1.94-11.54,6.17-13.78,12.97-1.35,4.09-.91,8.22-.04,12.34v-.03Z"/>
  <path class="cls-1" d="M249.69,68.27c-.86-4.12-1.31-8.24.04-12.34,2.25-6.8,7.07-11.03,13.78-12.97,6.41-1.85,12.3-.65,17.11,4.26,1.47,1.5,2.83,3.17,1.31,5.5-1.61,2.46-4.14,3-5.57.54-2.05-3.52-5.12-3.31-8.02-2.78-3.03.55-5.37,2.66-6.79,5.57-3.55,7.28-.18,15.37,7.26,18.36,6.49,2.61,11.97.75,17.29-2.92.76.96.08,1.92.17,2.84l.07-.05c-.92.2-.65.91-.64,1.51-7.46,7.37-16.03,8.83-25.54,4.58-5.32-2.38-8.32-6.92-10.47-12.11h0Z"/>
  <path class="cls-4" d="M364.96,73.88c-1.89-.61-3.66-1.65-3.53-3.78.13-2.25,1.91-3.62,3.93-4.46,6.62-2.78,14.17.05,18.05,6.89,1.28,2.26,2.24,4.7,2.53,7.32.41,3.84-1.07,5.02-4.53,3.38-3.34-1.59-6.53-3.5-9.79-5.27.2-4.91-2.13-6.34-6.65-4.07h0Z"/>
  <path class="cls-1" d="M364.96,73.88c4.52-2.26,6.85-.84,6.65,4.07-1.48,1.13-3.02,2.51-4.91,1.02-1.59-1.25-2.78-2.85-1.74-5.1h0Z"/>
  <path class="cls-4" d="M285.7,75.8c0-.6-.28-1.31.64-1.51.35.74-.27,1.08-.64,1.51Z"/>
  <path class="cls-4" d="M131.55,374.05c15.48,2.55,30.97,4.92,46.08,9.42,20.52,6.12,40.35,13.67,58.31,25.53,3.22,2.13,6.34,4.43,9.36,6.82,1.7,1.35,3.21,3.13,1.44,5.42-1.88,2.44-3.81.94-5.48-.35-19.19-14.72-41.16-23.57-64.06-30.45-13.25-3.98-26.82-6.52-40.43-8.87-2.06-.36-4.18-.14-6.26-.73-2.05-.58-4.12-.98-3.69-3.68.41-2.57,2.35-3.3,4.73-3.11h0Z"/>
  <path class="cls-4" d="M140.6,355.17c10.32,1.38,20.31,3.47,30.24,5.89,22.15,5.4,43.33,13.24,63.02,24.86,6.14,3.62,11.73,8.03,17.16,12.62,1.29,1.09,2.79,2.25,2.51,4.32-.39,2.82-3.55,3.65-6.08,1.39-9.39-8.38-20.07-14.68-31.37-20.1-22.43-10.76-46.14-17.25-70.56-21.45-1.84-.32-3.71-.5-5.54-.88-1.9-.4-3.73-1.04-3.48-3.56.26-2.61,2.07-3.14,4.09-3.08h0Z"/>
  <path class="cls-4" d="M121.74,393.69c33.95,3.34,66.45,11.77,96.79,27.66,4.3,2.25,8.31,5.03,12.45,7.58.42.26.8.59,1.19.91,1.81,1.49,3.83,3.54,2.33,5.63-1.47,2.04-4.07.86-6.01-.44-6.86-4.58-14.13-8.42-21.59-11.88-23.68-10.99-48.57-17.79-74.36-21.49-3.82-.55-7.67-.96-11.51-1.42-2.11-.25-4.07-.65-3.89-3.44.14-2.14,1.99-3.4,4.6-3.1h0Z"/>
  <path class="cls-4" d="M425.57,377.55c-.57,2.11-2.02,2.97-4.3,3.24-19.96,2.37-39.52,6.64-58.44,13.47-18.32,6.61-36.06,14.46-51.38,26.87-1.81,1.47-3.81,2.41-5.57.28-1.94-2.34-.31-4.17,1.51-5.68,10.29-8.52,21.88-14.86,34.01-20.32,24.96-11.23,51.24-17.58,78.23-21.37,3.54-.5,6.09,1.01,5.95,3.5h-.01Z"/>
  <path class="cls-4" d="M412.16,354.82c1.98.15,3.89.69,4,3.02.12,2.44-1.64,3.33-3.87,3.66-12.8,1.89-25.45,4.59-37.86,8.25-21.12,6.24-41.4,14.44-59.6,27.12-3.27,2.28-6.29,4.89-9.45,7.32-1.77,1.36-3.68,2.52-5.56.3-1.86-2.2-.51-4,1.17-5.46,8.79-7.62,18.47-13.89,28.87-19.08,21.82-10.9,44.68-18.53,68.74-22.71,4.5-.78,8.98-1.75,13.54-2.42h.02Z"/>
  <path class="cls-4" d="M430.33,393.29c2.25-.22,4.15.45,4.46,2.87.34,2.67-1.54,3.75-3.9,3.96-28.41,2.5-55.54,10.04-81.66,21.18-8.08,3.44-16.01,7.47-23.27,12.58-1.22.86-2.52,1.61-3.83,2.31-1.37.73-2.7.5-3.73-.65-1.12-1.24-.64-2.55.13-3.75,1.17-1.84,2.97-2.99,4.75-4.14,17.53-11.32,36.8-18.62,56.65-24.6,15.51-4.68,31.44-7.22,47.43-9.46.99-.14,1.98-.21,2.98-.3h-.01Z"/>
  <path class="cls-4" d="M318.93,475.88c5.12-5.89,11.41-9.5,17.83-12.59,18.05-8.69,37.47-13.2,56.92-17.32,23.96-5.07,48.29-7.34,72.73-8.43,1-.04,2-.03,2.99-.09,2.12-.11,3.96.57,4.11,2.83.16,2.41-1.34,3.97-3.84,4.16-6.47.48-12.95.84-19.42,1.34-30.65,2.38-60.9,7.14-90.38,15.99-12.74,3.82-25.09,8.84-37.46,13.71-.88.35-1.73,1-3.48.4h0Z"/>
  <path class="cls-4" d="M232.45,475.7c-1.35.72-2.29-.07-3.29-.47-20.28-7.96-40.69-15.42-62.09-19.99-19.13-4.08-38.47-6.59-57.89-8.59-8.43-.87-16.9-1.29-25.36-1.91-2.54-.19-5.37-.17-5.16-3.82.22-3.67,3.14-3.31,5.61-3.21,17.56.73,35.08,2.01,52.47,4.62,11.08,1.66,22.2,3.19,33.01,6.21,12.23,3.41,24.52,6.58,36.45,11.13,8.13,3.1,15.5,7.16,22.52,12.09,1.47,1.03,3.02,2.09,3.72,3.94h.01Z"/>
</svg>