<svg version="1.1" xmlns="http://www.w3.org/2000/svg" viewBox="0 0 2323.2781832415158 1137.9584119223548" width="6969.834549724547" height="3413.8752357670646">
  <!-- svg-source:excalidraw -->
  
  <defs>
    <style class="style-fonts">
      @font-face {
        font-family: "Virgil";
        src: url("https://excalidraw.com/Virgil.woff2");
      }
      @font-face {
        font-family: "Cascadia";
        src: url("https://excalidraw.com/Cascadia.woff2");
      }
      @font-face {
        font-family: "Assistant";
        src: url("https://excalidraw.com/Assistant-Regular.woff2");
      }
    </style>
    
  </defs>
  <g stroke-opacity="0.1" fill-opacity="0.1" stroke-linecap="round" transform="translate(507.1479814791325 10) rotate(0 817.9919553150945 558.9792059611774)"><path d="M32 0 C630.69 -8.73, 1227.78 -9.7, 1603.98 0 C1626.54 3.4, 1634.91 11.92, 1635.98 32 C1639.29 367.49, 1641 705.2, 1635.98 1085.96 C1635.52 1103.97, 1626.67 1115.09, 1603.98 1117.96 C1141.93 1113.8, 679.33 1114.86, 32 1117.96 C7.23 1114.52, -1.6 1104.34, 0 1085.96 C6.63 764.97, 7.56 440.25, 0 32 C-3.15 11.2, 7.92 -0.01, 32 0" stroke="none" stroke-width="0" fill="#b2f2bb"></path><path d="M32 0 C654.56 2.72, 1275.44 3.31, 1603.98 0 M32 0 C613.84 -5.17, 1196.79 -5.14, 1603.98 0 M1603.98 0 C1623.6 -1.47, 1634.21 9.23, 1635.98 32 M1603.98 0 C1624.98 1.01, 1636.07 9, 1635.98 32 M1635.98 32 C1636.97 392.14, 1638.01 753.77, 1635.98 1085.96 M1635.98 32 C1633.6 424.47, 1633.85 817.15, 1635.98 1085.96 M1635.98 1085.96 C1634.98 1106.37, 1623.57 1119.6, 1603.98 1117.96 M1635.98 1085.96 C1635.64 1109.13, 1626.28 1119.47, 1603.98 1117.96 M1603.98 1117.96 C1212.3 1118.75, 821.54 1118.54, 32 1117.96 M1603.98 1117.96 C1168.19 1115.57, 733 1115.49, 32 1117.96 M32 1117.96 C10.02 1119.57, 0.99 1108.74, 0 1085.96 M32 1117.96 C10.4 1117.92, -0.14 1106.4, 0 1085.96 M0 1085.96 C-3.52 821.41, -4.95 556.23, 0 32 M0 1085.96 C-2.54 784.71, -3.16 483.35, 0 32 M0 32 C-1.9 12.63, 12.03 1.77, 32 0 M0 32 C1.38 11.28, 11.89 0.52, 32 0" stroke="#1e1e1e" stroke-width="2" fill="none"></path></g><g stroke-opacity="0.1" fill-opacity="0.1" stroke-linecap="round" transform="translate(574.3292401551686 434.860703649789) rotate(0 741.9999999999999 326.5)"><path d="M32 0 C380.34 4.15, 726.14 4.66, 1452 0 C1470.59 -1.13, 1482.93 10.78, 1484 32 C1483.87 202.75, 1484.4 371.26, 1484 621 C1486.88 645.39, 1470.38 655, 1452 653 C1058.25 644.21, 665.19 642.4, 32 653 C12.02 650.65, 2.33 640.53, 0 621 C-1.06 442.53, -0.96 265.55, 0 32 C0.68 11.14, 10.66 -0.44, 32 0" stroke="none" stroke-width="0" fill="#a5d8ff"></path><path d="M32 0 C457.35 1, 884.66 1.1, 1452 0 M32 0 C459.15 5.06, 885.74 5.38, 1452 0 M1452 0 C1471.37 0.58, 1482.04 10.86, 1484 32 M1452 0 C1471.46 0.49, 1483.97 8.87, 1484 32 M1484 32 C1483.14 224.11, 1484.44 416.15, 1484 621 M1484 32 C1482.31 256.63, 1482.44 481.79, 1484 621 M1484 621 C1484.44 640.99, 1475.13 653.02, 1452 653 M1484 621 C1481.86 642.59, 1474.46 650.93, 1452 653 M1452 653 C1035.91 647.55, 620.75 647.72, 32 653 M1452 653 C936.39 648.2, 420.56 647.87, 32 653 M32 653 C9.5 653.26, -0.79 642.17, 0 621 M32 653 C8.84 652.29, 0.36 644.51, 0 621 M0 621 C0.28 444.16, -0.82 267.55, 0 32 M0 621 C0.97 447.91, 1.51 274.43, 0 32 M0 32 C-1.96 9.46, 11.15 1.01, 32 0 M0 32 C-2.22 10.68, 11.5 1.25, 32 0" stroke="#1e1e1e" stroke-width="2" fill="none"></path></g><g stroke-linecap="round"><g transform="translate(516.6730269633878 765.6794144383942) rotate(0 388.18807158914063 116.23453349112566)"><path d="M1.16 0.46 C20.69 38.17, -10.84 187.59, 118.31 226.35 C247.46 265.12, 666.26 231.85, 776.06 233.04 M0.31 -0.35 C19.55 36.99, -11.94 185.86, 117.2 224.42 C246.33 262.98, 665.03 229.82, 775.13 231" stroke="#1e1e1e" stroke-width="2" fill="none"></path></g><g transform="translate(516.6730269633878 765.6794144383942) rotate(0 388.18807158914063 116.23453349112566)"><path d="M751.92 240.3 C761.86 235.89, 770.9 232.19, 775.13 231 M751.92 240.3 C759.16 237.8, 767.39 233.23, 775.13 231" stroke="#1e1e1e" stroke-width="2" fill="none"></path></g><g transform="translate(516.6730269633878 765.6794144383942) rotate(0 388.18807158914063 116.23453349112566)"><path d="M751.37 223.21 C761.54 225.56, 770.79 228.62, 775.13 231 M751.37 223.21 C758.91 226.65, 767.33 228.02, 775.13 231" stroke="#1e1e1e" stroke-width="2" fill="none"></path></g></g><mask></mask><g stroke-linecap="round"><g transform="translate(546.3135174689099 180.73543747962555) rotate(0 60.20950242385834 343.9786575302295)"><path d="M-0.3 0.36 C-3.06 102.61, -38.14 499.18, -15.39 613.96 C7.37 728.73, 111.24 676.5, 136.23 689.02 M1.74 -0.49 C-1.31 101.37, -38.85 497.52, -16.5 612.14 C5.85 726.76, 110.72 674.74, 135.86 687.24" stroke="#1e1e1e" stroke-width="2" fill="none"></path></g><g transform="translate(546.3135174689099 180.73543747962555) rotate(0 60.20950242385834 343.9786575302295)"><path d="M112.35 695.75 C122.26 691.9, 131.94 690.3, 135.86 687.24 M112.35 695.75 C120.93 691.82, 130.46 688.44, 135.86 687.24" stroke="#1e1e1e" stroke-width="2" fill="none"></path></g><g transform="translate(546.3135174689099 180.73543747962555) rotate(0 60.20950242385834 343.9786575302295)"><path d="M112.38 678.65 C122.34 681.58, 132.01 686.77, 135.86 687.24 M112.38 678.65 C120.82 681.36, 130.33 684.63, 135.86 687.24" stroke="#1e1e1e" stroke-width="2" fill="none"></path></g></g><mask></mask><g stroke-linecap="round"><g transform="translate(455.09859708530837 169.65182080999006) rotate(0 430.2008124725423 -1.7265923283492555)"><path d="M-0.93 1.12 C142.22 0.29, 716.14 -3.08, 859.65 -3.93 M0.79 0.67 C144.26 0.51, 718.9 -2.04, 861.97 -2.65" stroke="#1e1e1e" stroke-width="2" fill="none"></path></g><g transform="translate(455.09859708530837 169.65182080999006) rotate(0 430.2008124725423 -1.7265923283492555)"><path d="M838.52 6 C848.81 1.8, 854.63 -0.54, 861.97 -2.65 M838.52 6 C844.22 4.98, 850.42 1.17, 861.97 -2.65" stroke="#1e1e1e" stroke-width="2" fill="none"></path></g><g transform="translate(455.09859708530837 169.65182080999006) rotate(0 430.2008124725423 -1.7265923283492555)"><path d="M838.44 -11.1 C848.91 -9.11, 854.76 -5.26, 861.97 -2.65 M838.44 -11.1 C844.14 -7.79, 850.36 -7.28, 861.97 -2.65" stroke="#1e1e1e" stroke-width="2" fill="none"></path></g></g><mask></mask><g mask="url(#mask-6yYD-yQQL6hLyRe2d1wTI)" stroke-linecap="round"><g transform="translate(1003.370374384717 698.4059116813435) rotate(0 158.93015652229445 -227.06025576322082)"><path d="M-0.75 -0.48 C0.45 -61.43, -46.82 -288.83, 6.25 -364.6 C59.33 -440.37, 265.82 -440.37, 317.7 -455.09 M1.06 -1.78 C2.15 -62.07, -47.47 -287.94, 5.16 -363.36 C57.79 -438.77, 264.77 -439.03, 316.85 -454.28" stroke="#1e1e1e" stroke-width="2" fill="none"></path></g><g transform="translate(1003.370374384717 698.4059116813435) rotate(0 158.93015652229445 -227.06025576322082)"><path d="M294.9 -442.33 C298.87 -445.31, 303.63 -447.78, 316.85 -454.28 M294.9 -442.33 C299.76 -445.81, 304.19 -446.83, 316.85 -454.28" stroke="#1e1e1e" stroke-width="2" fill="none"></path></g><g transform="translate(1003.370374384717 698.4059116813435) rotate(0 158.93015652229445 -227.06025576322082)"><path d="M292.35 -459.24 C297.05 -458.44, 302.37 -457.14, 316.85 -454.28 M292.35 -459.24 C297.73 -459.04, 302.71 -456.36, 316.85 -454.28" stroke="#1e1e1e" stroke-width="2" fill="none"></path></g></g><mask id="mask-6yYD-yQQL6hLyRe2d1wTI"><rect x="0" y="0" fill="#fff" width="1421.2306874293058" height="1252.5264232077852"></rect><rect x="899.4890005188074" y="296.87292983891007" fill="#000" width="220.81980895996094" height="75" opacity="1"></rect></mask><g transform="translate(899.4890005188072 296.87292983891007) rotate(0 253.1914676921228 173.74691795496838)"><text x="110.40990447998047" y="0" font-family="Virgil, Segoe UI Emoji" font-size="20px" fill="#1e1e1e" text-anchor="middle" style="white-space: pre;" direction="ltr" dominant-baseline="text-before-edge">Retrieve top k </text><text x="110.40990447998047" y="25" font-family="Virgil, Segoe UI Emoji" font-size="20px" fill="#1e1e1e" text-anchor="middle" style="white-space: pre;" direction="ltr" dominant-baseline="text-before-edge">dictionary keys based </text><text x="110.40990447998047" y="50" font-family="Virgil, Segoe UI Emoji" font-size="20px" fill="#1e1e1e" text-anchor="middle" style="white-space: pre;" direction="ltr" dominant-baseline="text-before-edge">on calculated entropy</text></g><g stroke-linecap="round" transform="translate(774.8537658659944 718.7813106193565) rotate(0 160.62227665216125 75.49105235417107)"><path d="M32 0 C101.23 1.37, 168.17 1.65, 289.24 0 M32 0 C86.87 0.93, 141.31 1.19, 289.24 0 M289.24 0 C310.51 -1.84, 319.83 9.31, 321.24 32 M289.24 0 C310.85 0.12, 322.92 10.28, 321.24 32 M321.24 32 C323.21 50.62, 321.23 69.46, 321.24 118.98 M321.24 32 C321.79 54.48, 322.82 77.82, 321.24 118.98 M321.24 118.98 C322.67 139.99, 312.45 152.96, 289.24 150.98 M321.24 118.98 C320.68 140.07, 310.31 153.02, 289.24 150.98 M289.24 150.98 C200.42 152.83, 111.92 153.2, 32 150.98 M289.24 150.98 C228.13 152.18, 166.35 152.2, 32 150.98 M32 150.98 C9.13 150.82, 1.21 140.5, 0 118.98 M32 150.98 C12.16 151.86, -1.42 140.32, 0 118.98 M0 118.98 C0.37 94.69, -1.25 69.77, 0 32 M0 118.98 C-1.44 97.51, -1.15 75.45, 0 32 M0 32 C0.47 10.96, 10.35 -1.35, 32 0 M0 32 C1.84 11.67, 9.01 1.66, 32 0" stroke="#1e1e1e" stroke-width="2" fill="none"></path></g><g transform="translate(797.6773974986245 769.4630969416404) rotate(0 137.79864501953125 24.809266031887205)"><text x="137.79864501953125" y="0" font-family="Virgil, Segoe UI Emoji" font-size="19.847412825509764px" fill="#1e1e1e" text-anchor="middle" style="white-space: pre;" direction="ltr" dominant-baseline="text-before-edge">Lookup Dictionaries</text><text x="137.79864501953125" y="24.809266031887205" font-family="Virgil, Segoe UI Emoji" font-size="19.847412825509764px" fill="#1e1e1e" text-anchor="middle" style="white-space: pre;" direction="ltr" dominant-baseline="text-before-edge">General + In-Task (priority)</text></g><g stroke-linecap="round" transform="translate(706.9484967281556 645.9529567302006) rotate(0 238.85753518100577 133.8266894680694)"><path d="M32 0 C149.65 0.9, 268.34 0.04, 445.72 0 M32 0 C120.06 0.72, 207.77 0.85, 445.72 0 M445.72 0 C467.28 0.1, 479.17 10.33, 477.72 32 M445.72 0 C465.16 0.09, 475.77 12.89, 477.72 32 M477.72 32 C477 91.03, 477.24 146.94, 477.72 235.65 M477.72 32 C479.95 85.9, 480.15 140.98, 477.72 235.65 M477.72 235.65 C477.22 256.78, 466.82 269.43, 445.72 267.65 M477.72 235.65 C478.68 258.09, 468.69 266.5, 445.72 267.65 M445.72 267.65 C311.33 269.52, 178.9 268.96, 32 267.65 M445.72 267.65 C319.39 267.75, 194.23 267.84, 32 267.65 M32 267.65 C11.97 268.41, -1.24 256.99, 0 235.65 M32 267.65 C10.22 267.07, -0.43 257.16, 0 235.65 M0 235.65 C0.49 175.03, -0.22 110.2, 0 32 M0 235.65 C1.02 164.09, 0.67 91.66, 0 32 M0 32 C1.6 11.54, 9.23 1.44, 32 0 M0 32 C-2.09 11.49, 9.6 1.35, 32 0" stroke="#2f9e44" stroke-width="2" fill="none"></path></g><g transform="translate(898.2835067968462 672.1805671814477) rotate(0 42.23932647705078 12.404633015943602)"><text x="0" y="0" font-family="Virgil, Segoe UI Emoji" font-size="19.847412825509764px" fill="#2f9e44" text-anchor="start" style="white-space: pre;" direction="ltr" dominant-baseline="text-before-edge">Glossary</text></g><g mask="url(#mask-Re3Fy48i0OIPtoN2JAelB)" stroke-linecap="round"><g transform="translate(1665.5254371182746 765.5846966415662) rotate(0 1.4788911744259394 -52.67973251874963)"><path d="M-0.16 -0.97 C0.33 -18.24, 2.14 -86.65, 2.66 -104.18 M-1.7 1.14 C-1.37 -16.39, 0.91 -87.96, 1.56 -105.69" stroke="#1e1e1e" stroke-width="2" fill="none"></path></g><g transform="translate(1665.5254371182746 765.5846966415662) rotate(0 1.4788911744259394 -52.67973251874963)"><path d="M9.32 -81.92 C5.66 -89, 7.09 -95.06, 1.56 -105.69 M9.32 -81.92 C7.4 -86.73, 5.67 -93.01, 1.56 -105.69" stroke="#1e1e1e" stroke-width="2" fill="none"></path></g><g transform="translate(1665.5254371182746 765.5846966415662) rotate(0 1.4788911744259394 -52.67973251874963)"><path d="M-7.78 -82.5 C-6.7 -89.4, -0.53 -95.29, 1.56 -105.69 M-7.78 -82.5 C-5.68 -87.33, -3.37 -93.48, 1.56 -105.69" stroke="#1e1e1e" stroke-width="2" fill="none"></path></g></g><mask id="mask-Re3Fy48i0OIPtoN2JAelB"><rect x="0" y="0" fill="#fff" width="1768.4832194671264" height="970.9441616790655"></rect><rect x="1638.7743478239506" y="700.4049641228165" fill="#000" width="56.4599609375" height="25" opacity="1"></rect></mask><g transform="translate(1638.7743478239504 700.4049641228166) rotate(0 27.23398465970996 12.904108875198233)"><text x="28.22998046875" y="0" font-family="Virgil, Segoe UI Emoji" font-size="20px" fill="#1e1e1e" text-anchor="middle" style="white-space: pre;" direction="ltr" dominant-baseline="text-before-edge">BM25</text></g><g stroke-linecap="round" transform="translate(1391.1920501494578 902.3747512056254) rotate(0 126.6078066914497 53.308550185873514)"><path d="M26.65 0 C79.09 -1.34, 133.85 0.3, 226.56 0 M26.65 0 C86.82 0.37, 147.78 1.3, 226.56 0 M226.56 0 C243.99 -0.04, 252.76 8.13, 253.22 26.65 M226.56 0 C246.16 -0.57, 252.87 8.09, 253.22 26.65 M253.22 26.65 C252.98 49.2, 255.28 67.52, 253.22 79.96 M253.22 26.65 C253.58 42.56, 253.87 57.01, 253.22 79.96 M253.22 79.96 C253.68 96.12, 245.26 105.38, 226.56 106.62 M253.22 79.96 C254.97 99.03, 244.89 106.72, 226.56 106.62 M226.56 106.62 C173.38 106.28, 120.72 106.38, 26.65 106.62 M226.56 106.62 C158.79 106.37, 91.23 106.7, 26.65 106.62 M26.65 106.62 C8.98 105.15, -0.43 96.79, 0 79.96 M26.65 106.62 C10.73 104.62, -1.72 98.93, 0 79.96 M0 79.96 C0.04 66.04, -1.6 54.36, 0 26.65 M0 79.96 C-0.53 62.01, -0.08 43.93, 0 26.65 M0 26.65 C-1.38 8.54, 9.58 -0.39, 26.65 0 M0 26.65 C-0.63 8.15, 7.76 0.41, 26.65 0" stroke="#1e1e1e" stroke-width="2" fill="none"></path></g><g transform="translate(1450.231993376552 944.5773534361088) rotate(0 67.56786346435547 11.10594795539032)"><text x="67.56786346435547" y="0" font-family="Virgil, Segoe UI Emoji" font-size="17.769516728624534px" fill="#1e1e1e" text-anchor="middle" style="white-space: pre;" direction="ltr" dominant-baseline="text-before-edge">General Memory</text></g><g stroke-linecap="round" transform="translate(1308.6584850468976 498.1215286002574) rotate(0 356.2893875022129 279.14010306420397)"><path d="M32 0 C180.89 0.28, 329.56 -0.96, 680.58 0 M32 0 C228.9 -2.51, 425.85 -2.65, 680.58 0 M680.58 0 C703.5 -0.49, 712.28 9.97, 712.58 32 M680.58 0 C703.93 0.4, 714.22 10.29, 712.58 32 M712.58 32 C714.49 226.39, 715.3 421.32, 712.58 526.28 M712.58 32 C714.11 203.76, 714.21 375.92, 712.58 526.28 M712.58 526.28 C714.1 548.74, 702.4 558.37, 680.58 558.28 M712.58 526.28 C711.78 547.75, 700.14 558.09, 680.58 558.28 M680.58 558.28 C447.19 559.47, 213.19 559.81, 32 558.28 M680.58 558.28 C502.46 558.18, 324.23 558.29, 32 558.28 M32 558.28 C12.27 556.54, -1.49 548.65, 0 526.28 M32 558.28 C9.63 559.34, 0.53 547.95, 0 526.28 M0 526.28 C1.72 385.27, 1.96 244.69, 0 32 M0 526.28 C0.65 360.15, 1.08 194.08, 0 32 M0 32 C-0.55 10.03, 9.69 0.36, 32 0 M0 32 C1.52 9.99, 12.69 1.07, 32 0" stroke="#2f9e44" stroke-width="2" fill="none"></path></g><g transform="translate(1711.7372084720487 518.6263478697464) rotate(0 84.7595443725586 11.10594795539032)"><text x="0" y="0" font-family="Virgil, Segoe UI Emoji" font-size="17.769516728624534px" fill="#2f9e44" text-anchor="start" style="white-space: pre;" direction="ltr" dominant-baseline="text-before-edge">Translation Memory</text></g><g stroke-linecap="round" transform="translate(1681.8604342131684 901.8088827822779) rotate(0 126.6078066914497 53.30855018587357)"><path d="M26.65 0 C101.24 -0.06, 177.61 1.3, 226.56 0 M26.65 0 C87.01 0.5, 145.61 0.41, 226.56 0 M226.56 0 C246.09 0.34, 254.64 8.56, 253.22 26.65 M226.56 0 C246.48 2.27, 252.65 8.64, 253.22 26.65 M253.22 26.65 C254.65 43.45, 252.69 57.87, 253.22 79.96 M253.22 26.65 C254.22 38.91, 253.71 50.09, 253.22 79.96 M253.22 79.96 C252.52 97.85, 242.79 106.45, 226.56 106.62 M253.22 79.96 C254.6 97.95, 245.83 107.49, 226.56 106.62 M226.56 106.62 C178.46 105.85, 131.53 106.32, 26.65 106.62 M226.56 106.62 C182.05 104.81, 135.18 106.2, 26.65 106.62 M26.65 106.62 C7.99 107.54, 0.47 98.02, 0 79.96 M26.65 106.62 C8.52 105.06, 1.84 98.73, 0 79.96 M0 79.96 C0.34 66.89, 0.79 54.28, 0 26.65 M0 79.96 C-0.46 64.58, -0.68 50.01, 0 26.65 M0 26.65 C1.32 8.29, 10.64 0.93, 26.65 0 M0 26.65 C1.16 10.3, 9.75 0.82, 26.65 0" stroke="#1e1e1e" stroke-width="2" fill="none"></path></g><g transform="translate(1739.000047850419 932.9055370573706) rotate(0 69.46819305419922 22.21189591078064)"><text x="69.46819305419922" y="0" font-family="Virgil, Segoe UI Emoji" font-size="17.769516728624534px" fill="#1e1e1e" text-anchor="middle" style="white-space: pre;" direction="ltr" dominant-baseline="text-before-edge">In-Task Memory</text><text x="69.46819305419922" y="22.21189591078067" font-family="Virgil, Segoe UI Emoji" font-size="17.769516728624534px" fill="#1e1e1e" text-anchor="middle" style="white-space: pre;" direction="ltr" dominant-baseline="text-before-edge">(priority)</text></g><g stroke-linecap="round" transform="translate(1355.1361160018132 776.4676109368555) rotate(0 298.8590764084047 125.22630698731592)"><path d="M32 0 C146.85 0.18, 261.43 1, 565.72 0 M32 0 C179.29 0.81, 326.15 0.67, 565.72 0 M565.72 0 C588.92 1.98, 597.23 10.46, 597.72 32 M565.72 0 C586.79 2.04, 598.69 11.77, 597.72 32 M597.72 32 C595.17 102.13, 595.55 171.94, 597.72 218.45 M597.72 32 C597.83 98.52, 597.4 164.82, 597.72 218.45 M597.72 218.45 C598.92 239.97, 588.35 251.21, 565.72 250.45 M597.72 218.45 C596.29 239.79, 586.6 249.87, 565.72 250.45 M565.72 250.45 C415.09 250.38, 265.25 251.2, 32 250.45 M565.72 250.45 C451.87 251.75, 338.48 251.62, 32 250.45 M32 250.45 C10.35 249.1, 1.6 240.66, 0 218.45 M32 250.45 C9.01 252.11, -2.09 240.61, 0 218.45 M0 218.45 C-1.44 171.83, -1.49 123.25, 0 32 M0 218.45 C1.57 168.18, 1.79 118.96, 0 32 M0 32 C1.01 11.9, 11.42 0.71, 32 0 M0 32 C-0.66 10.84, 10.63 1.08, 32 0" stroke="#1e1e1e" stroke-width="2" fill="none"></path></g><g stroke-linecap="round"><g transform="translate(1594.9395984368807 863.1228078711828) rotate(0 -44.30454028773181 13.969170315949839)"><path d="M0.96 -0.3 C-13.8 4.37, -74.04 22.78, -88.79 27.52 M0 -1.5 C-14.9 3.37, -75.21 23.66, -89.83 28.84" stroke="#1e1e1e" stroke-width="2" fill="none"></path></g><g transform="translate(1594.9395984368807 863.1228078711828) rotate(0 -44.30454028773181 13.969170315949839)"><path d="M-18.96 14.81 C-13.88 10.16, -8.56 8.04, 0.96 -0.3 M-18.96 14.81 C-11.82 11.04, -6.68 5.15, 0.96 -0.3" stroke="#1e1e1e" stroke-width="2" fill="none"></path></g><g transform="translate(1594.9395984368807 863.1228078711828) rotate(0 -44.30454028773181 13.969170315949839)"><path d="M-24.01 -1.53 C-17.59 -1.69, -10.87 0.71, 0.96 -0.3 M-24.01 -1.53 C-15.15 -0.11, -8.41 -0.81, 0.96 -0.3" stroke="#1e1e1e" stroke-width="2" fill="none"></path></g><g transform="translate(1594.9395984368807 863.1228078711828) rotate(0 -44.30454028773181 13.969170315949839)"><path d="M-70.39 13.12 C-76.33 17.33, -81.92 23.75, -89.83 28.84 M-70.39 13.12 C-75.51 19.06, -82.86 22.96, -89.83 28.84" stroke="#1e1e1e" stroke-width="2" fill="none"></path></g><g transform="translate(1594.9395984368807 863.1228078711828) rotate(0 -44.30454028773181 13.969170315949839)"><path d="M-64.84 29.29 C-72.26 29.07, -79.38 31, -89.83 28.84 M-64.84 29.29 C-71.83 30.1, -80.94 28.86, -89.83 28.84" stroke="#1e1e1e" stroke-width="2" fill="none"></path></g></g><mask></mask><g stroke-linecap="round"><g transform="translate(1745.9444789424433 857.2670969189708) rotate(0 35.61635758178136 18.066771258201015)"><path d="M-0.18 -0.42 C11.71 5.69, 60.24 30.28, 72.29 36.34 M-1.73 -1.68 C10 4.07, 59.64 27.85, 71.89 34.33" stroke="#1e1e1e" stroke-width="2" fill="none"></path></g><g transform="translate(1745.9444789424433 857.2670969189708) rotate(0 35.61635758178136 18.066771258201015)"><path d="M24.64 2.6 C14.53 3.18, 6.14 1.7, -0.18 -0.42 M24.64 2.6 C17.32 1.88, 10.41 2.02, -0.18 -0.42" stroke="#1e1e1e" stroke-width="2" fill="none"></path></g><g transform="translate(1745.9444789424433 857.2670969189708) rotate(0 35.61635758178136 18.066771258201015)"><path d="M16.89 17.85 C9.76 12.65, 4.32 5.38, -0.18 -0.42 M16.89 17.85 C11.63 12.73, 6.92 8.54, -0.18 -0.42" stroke="#1e1e1e" stroke-width="2" fill="none"></path></g><g transform="translate(1745.9444789424433 857.2670969189708) rotate(0 35.61635758178136 18.066771258201015)"><path d="M47.06 31.47 C55.79 34.35, 66.25 35.1, 71.89 34.33 M47.06 31.47 C53.88 31.93, 61.06 33.73, 71.89 34.33" stroke="#1e1e1e" stroke-width="2" fill="none"></path></g><g transform="translate(1745.9444789424433 857.2670969189708) rotate(0 35.61635758178136 18.066771258201015)"><path d="M54.71 16.17 C60.49 24.85, 68.06 31.41, 71.89 34.33 M54.71 16.17 C59.51 21.05, 64.51 27.19, 71.89 34.33" stroke="#1e1e1e" stroke-width="2" fill="none"></path></g></g><mask></mask><g stroke-linecap="round" transform="translate(1512.795713743094 563.8380965445455) rotate(0 161.63564399155166 42.5)"><path d="M21.25 0 C101.51 -0.8, 181 -0.46, 302.02 0 M21.25 0 C133.12 0.91, 245.49 0.6, 302.02 0 M302.02 0 C317.61 -1, 323.74 5.47, 323.27 21.25 M302.02 0 C317.25 -1.42, 325.02 8.38, 323.27 21.25 M323.27 21.25 C323.41 33.5, 323.12 50.04, 323.27 63.75 M323.27 21.25 C322.93 34.4, 323.35 47.29, 323.27 63.75 M323.27 63.75 C322.89 78.07, 316.28 83.53, 302.02 85 M323.27 63.75 C322.78 76.83, 318.03 83, 302.02 85 M302.02 85 C239.44 84.39, 175.68 83.79, 21.25 85 M302.02 85 C236.21 86.49, 170.8 86.21, 21.25 85 M21.25 85 C6.16 86.18, -1.38 77.57, 0 63.75 M21.25 85 C7.89 84.55, -0.63 77.18, 0 63.75 M0 63.75 C-0.67 54.84, 0.86 43.42, 0 21.25 M0 63.75 C-0.45 48.46, -0.17 33.49, 0 21.25 M0 21.25 C1.59 8.43, 6.59 0.75, 21.25 0 M0 21.25 C0.77 6.96, 6.59 1.31, 21.25 0" stroke="#1e1e1e" stroke-width="2" fill="none"></path></g><g transform="translate(1565.9314569167746 581.3380965445455) rotate(0 108.4999008178711 25)"><text x="108.4999008178711" y="0" font-family="Virgil, Segoe UI Emoji" font-size="20px" fill="#1e1e1e" text-anchor="middle" style="white-space: pre;" direction="ltr" dominant-baseline="text-before-edge">Reranker</text><text x="108.4999008178711" y="25" font-family="Virgil, Segoe UI Emoji" font-size="20px" fill="#1e1e1e" text-anchor="middle" style="white-space: pre;" direction="ltr" dominant-baseline="text-before-edge">(Levenshtein distance)</text></g><g stroke-linecap="round"><g transform="translate(2076.867490231433 239.73683244613545) rotate(0 50.02344960778623 -1.654640117423611)"><path d="M-0.92 -0.1 C15.94 -0.64, 83.81 -2.74, 100.77 -3.2 M0.79 -1.2 C17.6 -1.54, 83.59 -0.98, 100.2 -1.6" stroke="#1e1e1e" stroke-width="2" fill="none"></path></g><g transform="translate(2076.867490231433 239.73683244613545) rotate(0 50.02344960778623 -1.654640117423611)"><path d="M76.81 7.22 C82.84 6.27, 89.4 4.02, 100.2 -1.6 M76.81 7.22 C84.58 3.99, 92.49 1.33, 100.2 -1.6" stroke="#1e1e1e" stroke-width="2" fill="none"></path></g><g transform="translate(2076.867490231433 239.73683244613545) rotate(0 50.02344960778623 -1.654640117423611)"><path d="M76.61 -9.88 C82.71 -6.29, 89.32 -4, 100.2 -1.6 M76.61 -9.88 C84.34 -7.33, 92.32 -4.21, 100.2 -1.6" stroke="#1e1e1e" stroke-width="2" fill="none"></path></g></g><mask></mask><g stroke-opacity="0.1" fill-opacity="0.1" stroke-linecap="round" transform="translate(1353.2419257375673 35.27577545098643) rotate(0 202.78134708789383 180.85972914379488)"><path d="M32 0 C125.52 3.57, 217.47 4.1, 373.56 0 C396.58 1.82, 407.78 12.02, 405.56 32 C404.39 133.14, 406.54 233.56, 405.56 329.72 C404.67 352.4, 396.1 361.52, 373.56 361.72 C279.32 366.27, 184.54 364.22, 32 361.72 C8.24 359.54, 1.88 352.43, 0 329.72 C3.99 262.61, 4.45 197.22, 0 32 C-2.11 9.42, 11.06 -3.37, 32 0" stroke="none" stroke-width="0" fill="#ffc9c9"></path><path d="M32 0 C164.41 -0.66, 298.41 -0.33, 373.56 0 M32 0 C103.18 1.58, 174.68 1.43, 373.56 0 M373.56 0 C393.26 0.07, 403.87 12.6, 405.56 32 M373.56 0 C394.5 -0.05, 405.04 9.8, 405.56 32 M405.56 32 C404.51 146.32, 405.27 259.11, 405.56 329.72 M405.56 32 C407.43 116.4, 407.53 201.6, 405.56 329.72 M405.56 329.72 C406.41 352.02, 396.32 360.72, 373.56 361.72 M405.56 329.72 C406.1 349.2, 395.96 360.3, 373.56 361.72 M373.56 361.72 C245.11 361.81, 116.63 361.25, 32 361.72 M373.56 361.72 C274.36 362.18, 173.88 361.93, 32 361.72 M32 361.72 C10.27 361.21, -0.38 351.2, 0 329.72 M32 361.72 C10.78 360.03, -0.49 349.97, 0 329.72 M0 329.72 C2.68 215.87, 2.59 103.68, 0 32 M0 329.72 C0.94 236.41, -0.18 142.99, 0 32 M0 32 C-1.82 11.39, 9.74 1.18, 32 0 M0 32 C-1.58 10.27, 11.47 -0.45, 32 0" stroke="#1e1e1e" stroke-width="2" fill="none"></path></g><g transform="translate(1521.8597782004865 278.2546350024887) rotate(0 26.759986877441406 12.5)"><text x="26.759986877441406" y="0" font-family="Virgil, Segoe UI Emoji" font-size="20px" fill="#1e1e1e" text-anchor="middle" style="white-space: pre;" direction="ltr" dominant-baseline="text-before-edge">LLM2</text></g><g stroke-linecap="round" transform="translate(1427.7048002087927 117.74766189494295) rotate(0 120.22884188568867 48.45353373911931)"><path d="M24.23 0 C78.87 1.06, 130.93 1.65, 216.23 0 M24.23 0 C72.66 0.93, 120.93 2.11, 216.23 0 M216.23 0 C232.87 0.09, 239.76 8.2, 240.46 24.23 M216.23 0 C230.61 -0.19, 241.84 8.29, 240.46 24.23 M240.46 24.23 C240.65 41.52, 240.13 59.23, 240.46 72.68 M240.46 24.23 C240.27 38.66, 241.28 53.16, 240.46 72.68 M240.46 72.68 C238.97 89.87, 231.48 97.83, 216.23 96.91 M240.46 72.68 C240.99 89.16, 232.02 95.35, 216.23 96.91 M216.23 96.91 C144.75 93.7, 71.1 94.6, 24.23 96.91 M216.23 96.91 C147.69 96.38, 78.16 96.25, 24.23 96.91 M24.23 96.91 C7.1 97.27, 1.32 88.24, 0 72.68 M24.23 96.91 C10.1 97.98, 1.16 90.25, 0 72.68 M0 72.68 C-0.02 56.29, 0.77 41.55, 0 24.23 M0 72.68 C0.46 54.83, -0.1 37.66, 0 24.23 M0 24.23 C1.93 8.8, 8.58 0.99, 24.23 0 M0 24.23 C-1.39 6.52, 6.68 1.2, 24.23 0" stroke="#1e1e1e" stroke-width="2" fill="none"></path></g><g transform="translate(1525.583651249755 153.7011956340623) rotate(0 22.349990844726562 12.5)"><text x="22.349990844726562" y="0" font-family="Virgil, Segoe UI Emoji" font-size="20px" fill="#1e1e1e" text-anchor="middle" style="white-space: pre;" direction="ltr" dominant-baseline="text-before-edge">LLM1</text></g><g stroke-linecap="round" transform="translate(1897.5377257652221 50.80325455059949) rotate(0 76.38415784045128 158.31436363556082)"><path d="M32 0 C61.37 -0.17, 91.13 0.29, 120.77 0 M32 0 C53.4 -0.46, 73.96 -0.44, 120.77 0 M120.77 0 C140.56 -0.17, 153.97 10.85, 152.77 32 M120.77 0 C143.6 0.87, 151.34 10.68, 152.77 32 M152.77 32 C152.37 102.91, 151.06 173.32, 152.77 284.63 M152.77 32 C153.81 96.31, 154.05 160.15, 152.77 284.63 M152.77 284.63 C153.23 306.25, 141.78 315.28, 120.77 316.63 M152.77 284.63 C154.6 306.96, 140.44 318.29, 120.77 316.63 M120.77 316.63 C103.39 314.84, 83.31 316.92, 32 316.63 M120.77 316.63 C95.39 316.52, 71.66 316.05, 32 316.63 M32 316.63 C12.43 317.56, 1.01 307.19, 0 284.63 M32 316.63 C11.53 317.45, -0.66 306.13, 0 284.63 M0 284.63 C0.13 208.81, -0.36 134.34, 0 32 M0 284.63 C1.23 210.52, 0.65 136.23, 0 32 M0 32 C-1.21 9.32, 9.45 1.04, 32 0 M0 32 C0.88 8.79, 9.52 -0.07, 32 0" stroke="#1e1e1e" stroke-width="2" fill="none"></path></g><g transform="translate(1916.0419473874117 171.6176181861603) rotate(0 57.87993621826172 37.5)"><text x="57.87993621826172" y="0" font-family="Virgil, Segoe UI Emoji" font-size="20px" fill="#1e1e1e" text-anchor="middle" style="white-space: pre;" direction="ltr" dominant-baseline="text-before-edge">ensemble</text><text x="57.87993621826172" y="25" font-family="Virgil, Segoe UI Emoji" font-size="20px" fill="#1e1e1e" text-anchor="middle" style="white-space: pre;" direction="ltr" dominant-baseline="text-before-edge">via</text><text x="57.87993621826172" y="50" font-family="Virgil, Segoe UI Emoji" font-size="20px" fill="#1e1e1e" text-anchor="middle" style="white-space: pre;" direction="ltr" dominant-baseline="text-before-edge">comet-score</text></g><g stroke-linecap="round"><g transform="translate(1684.8887567449133 280.74263072186443) rotate(0 98.91998609950457 0.4224202072819594)"><path d="M0.55 -0.74 C33.63 -0.33, 165.82 1.25, 198.75 1.52 M-0.61 1.49 C32.36 1.64, 165.26 -0.37, 198.29 -0.25" stroke="#1e1e1e" stroke-width="2" fill="none"></path></g><g transform="translate(1684.8887567449133 280.74263072186443) rotate(0 98.91998609950457 0.4224202072819594)"><path d="M174.85 8.46 C181.26 7.07, 191.2 3.22, 198.29 -0.25 M174.85 8.46 C181.24 5.72, 189.75 3.24, 198.29 -0.25" stroke="#1e1e1e" stroke-width="2" fill="none"></path></g><g transform="translate(1684.8887567449133 280.74263072186443) rotate(0 98.91998609950457 0.4224202072819594)"><path d="M174.74 -8.64 C181.05 -4.51, 191.02 -2.83, 198.29 -0.25 M174.74 -8.64 C181.1 -6.18, 189.65 -3.45, 198.29 -0.25" stroke="#1e1e1e" stroke-width="2" fill="none"></path></g></g><mask></mask><g stroke-linecap="round"><g transform="translate(1684.4221108074207 161.41595804134573) rotate(0 94.37711773571056 -1.0720217581718998)"><path d="M0.91 0.68 C32.33 0.45, 157.81 -1.63, 189.05 -2.09 M-0.06 -0.01 C31.17 0.04, 157.02 -0.41, 188.25 -0.53" stroke="#1e1e1e" stroke-width="2" fill="none"></path></g><g transform="translate(1684.4221108074207 161.41595804134573) rotate(0 94.37711773571056 -1.0720217581718998)"><path d="M164.79 8.11 C174.1 5.43, 181.18 1.25, 188.25 -0.53 M164.79 8.11 C172.64 5.58, 179.87 3.22, 188.25 -0.53" stroke="#1e1e1e" stroke-width="2" fill="none"></path></g><g transform="translate(1684.4221108074207 161.41595804134573) rotate(0 94.37711773571056 -1.0720217581718998)"><path d="M164.73 -8.99 C173.95 -5.75, 181.06 -4.01, 188.25 -0.53 M164.73 -8.99 C172.47 -6.29, 179.72 -3.41, 188.25 -0.53" stroke="#1e1e1e" stroke-width="2" fill="none"></path></g></g><mask></mask><g transform="translate(1486.4093908539535 49.13368562977976) rotate(0 58.35597229003906 22.5)"><text x="0" y="0" font-family="Virgil, Segoe UI Emoji" font-size="36px" fill="#1e1e1e" text-anchor="start" style="white-space: pre;" direction="ltr" dominant-baseline="text-before-edge">Models</text></g><g transform="translate(673.7304672905013 517.435827265046) rotate(0 133.2359619140625 22.5)"><text x="0" y="0" font-family="Virgil, Segoe UI Emoji" font-size="36px" fill="#1e1e1e" text-anchor="start" style="white-space: pre;" direction="ltr" dominant-baseline="text-before-edge">InputProcessor</text></g><g stroke-linecap="round" transform="translate(1428.3909231922394 241.95981883083988) rotate(0 120.22884188568867 48.45353373911931)"><path d="M24.23 0 C77.95 1.75, 131.52 -1.04, 216.23 0 M24.23 0 C99.56 0.3, 175.23 -0.04, 216.23 0 M216.23 0 C231.89 1.96, 240.5 6.78, 240.46 24.23 M216.23 0 C231.54 2.18, 240.04 9.71, 240.46 24.23 M240.46 24.23 C242.12 36.77, 239.95 53.71, 240.46 72.68 M240.46 24.23 C240.34 40.01, 239.82 55.17, 240.46 72.68 M240.46 72.68 C239.03 87.67, 231.65 97.17, 216.23 96.91 M240.46 72.68 C238.7 91.03, 232.08 98.03, 216.23 96.91 M216.23 96.91 C156.25 98.9, 97.68 98.09, 24.23 96.91 M216.23 96.91 C168.34 94.46, 121.98 95.19, 24.23 96.91 M24.23 96.91 C9.53 96.57, -1.64 88.91, 0 72.68 M24.23 96.91 C6.13 99.13, -0.39 88.78, 0 72.68 M0 72.68 C-0.31 58.95, -0.51 47.58, 0 24.23 M0 72.68 C0.59 58.3, -0.59 41.83, 0 24.23 M0 24.23 C-0.23 9.85, 8.92 0.96, 24.23 0 M0 24.23 C1.64 6.92, 8.61 -1.85, 24.23 0" stroke="#1e1e1e" stroke-width="2" fill="none"></path></g><g transform="translate(2187.8182223040158 215.84977087508844) rotate(0 62.72998046875 22.5)"><text x="0" y="0" font-family="Virgil, Segoe UI Emoji" font-size="36px" fill="#1e1e1e" text-anchor="start" style="white-space: pre;" direction="ltr" dominant-baseline="text-before-edge">Output</text></g><g transform="translate(10 144.71759142933115) rotate(0 213.91192626953125 22.5)"><text x="0" y="0" font-family="Virgil, Segoe UI Emoji" font-size="36px" fill="#1e1e1e" text-anchor="start" style="white-space: pre;" direction="ltr" dominant-baseline="text-before-edge">input text to translate</text></g><g transform="translate(770.731577810068 70.50252023027411) rotate(0 57.81598663330078 22.5)"><text x="0" y="0" font-family="Virgil, Segoe UI Emoji" font-size="36px" fill="#1e1e1e" text-anchor="start" style="white-space: pre;" direction="ltr" dominant-baseline="text-before-edge">TRagx</text></g><g transform="translate(1602.6119290516604 824.9306197797489) rotate(0 66.15994262695312 12.5)"><text x="0" y="0" font-family="Virgil, Segoe UI Emoji" font-size="20px" fill="#1e1e1e" text-anchor="start" style="white-space: pre;" direction="ltr" dominant-baseline="text-before-edge">Elasticsearch</text></g><g stroke-linecap="round"><g transform="translate(1498.2037199185943 553.8020693329686) rotate(0 -148.0709199955727 -114.3517996005412)"><path d="M0.43 -0.52 C-42.19 -13.66, -206.28 -47.13, -255.86 -78.51 C-305.44 -109.89, -312.37 -163.58, -297.03 -188.79 C-281.7 -214, -186.19 -223.09, -163.84 -229.77 M-0.81 1.83 C-43.55 -11.69, -207.73 -48.64, -256.7 -80.29 C-305.66 -111.94, -310.07 -163.24, -294.61 -188.06 C-279.15 -212.89, -185.64 -222.47, -163.92 -229.23" stroke="#1e1e1e" stroke-width="2" fill="none"></path></g><g transform="translate(1498.2037199185943 553.8020693329686) rotate(0 -148.0709199955727 -114.3517996005412)"><path d="M-185.21 -216.12 C-180 -219.61, -171.93 -225.21, -163.92 -229.23 M-185.21 -216.12 C-180.55 -218.79, -175.56 -221.86, -163.92 -229.23" stroke="#1e1e1e" stroke-width="2" fill="none"></path></g><g transform="translate(1498.2037199185943 553.8020693329686) rotate(0 -148.0709199955727 -114.3517996005412)"><path d="M-188.66 -232.87 C-182.41 -231.56, -173.36 -232.36, -163.92 -229.23 M-188.66 -232.87 C-183.38 -232.07, -177.67 -231.69, -163.92 -229.23" stroke="#1e1e1e" stroke-width="2" fill="none"></path></g></g><mask></mask><g stroke-linecap="round"><g transform="translate(1252.8849019721338 480.49963369159605) rotate(0 315.68915616217805 -50.33433914040927)"><path d="M0.93 0.97 C5.25 -7.43, -14.12 -39.36, 25.83 -51.03 C65.77 -62.7, 161.34 -64.27, 240.61 -69.07 C319.89 -73.86, 436.5 -74.37, 501.48 -79.79 C566.46 -85.22, 608.83 -98.33, 630.49 -101.62 M-0.05 0.43 C4.17 -8.24, -14.99 -41.32, 25.1 -52.74 C65.18 -64.16, 161.53 -63.71, 240.45 -68.09 C319.37 -72.47, 433.33 -73.41, 498.62 -79.02 C563.92 -84.62, 609.83 -98.23, 632.21 -101.73" stroke="#1e1e1e" stroke-width="2" fill="none"></path></g><g transform="translate(1252.8849019721338 480.49963369159605) rotate(0 315.68915616217805 -50.33433914040927)"><path d="M610.9 -88.65 C618.73 -91.9, 624.56 -94.44, 632.21 -101.73 M610.9 -88.65 C615.28 -92.55, 621.32 -94.05, 632.21 -101.73" stroke="#1e1e1e" stroke-width="2" fill="none"></path></g><g transform="translate(1252.8849019721338 480.49963369159605) rotate(0 315.68915616217805 -50.33433914040927)"><path d="M607.48 -105.41 C616.21 -103.85, 623.02 -101.55, 632.21 -101.73 M607.48 -105.41 C612.85 -105.17, 619.73 -102.55, 632.21 -101.73" stroke="#1e1e1e" stroke-width="2" fill="none"></path></g></g><mask></mask></svg>